<svg width="24" height="24" viewBox="0 0 24 24" fill="none" xmlns="http://www.w3.org/2000/svg">
<g clip-path="url(#clip0)">
<path d="M22.5354 2.63737C20.5825 0.684515 17.405 0.684515 15.4521 2.63737C14.506 3.58341 13.9851 4.84119 13.9851 6.17905C13.9851 7.51691 14.506 8.7747 15.4521 9.72068C15.9376 10.2063 16.5055 10.5795 17.124 10.8282C16.9066 11.1307 16.6846 11.3511 16.5172 11.4744C15.7947 12.0073 15.1545 12.6335 14.6166 13.3265C14.5541 12.9519 14.4484 12.58 14.2985 12.2166C13.6681 10.6892 12.3866 9.59304 10.7827 9.20908L10.1999 9.06958C10.1886 9.02151 10.1774 8.97344 10.1661 8.92472C9.51483 6.10544 7.14917 3.97448 4.27938 3.62206C4.00512 3.58841 3.75501 3.78355 3.72136 4.05805C3.68766 4.3325 3.88285 4.58237 4.15735 4.61607C6.61089 4.91741 8.63349 6.73947 9.19036 9.15015C9.44613 10.2574 9.70436 11.2065 9.95788 11.9712C10.0276 12.1814 10.2232 12.3145 10.4331 12.3145C10.4854 12.3145 10.5385 12.3063 10.5908 12.2889C10.8532 12.2019 10.9955 11.9185 10.9085 11.6561C10.7644 11.2214 10.6181 10.722 10.4713 10.1643L10.5495 10.183C11.8373 10.4913 12.8664 11.3718 13.3728 12.5987C13.868 13.7986 13.7647 15.1146 13.0895 16.2089C13.0688 16.2424 13.0477 16.2756 13.0261 16.3086C12.8745 16.5399 12.9391 16.8503 13.1705 17.0018C13.2551 17.0573 13.3503 17.0838 13.4445 17.0838C13.6077 17.0838 13.7677 17.0041 13.8637 16.8575C13.8902 16.8171 13.9161 16.7763 13.9417 16.735C14.2164 16.2898 14.4151 15.8154 14.5377 15.3265C15.1185 14.1473 16.0081 13.0943 17.1115 12.2805C17.4713 12.0153 17.8391 11.5939 18.1354 11.1149C18.4162 11.1631 18.703 11.1877 18.9937 11.1877C19.3318 11.1877 19.6647 11.1543 19.9888 11.0893C19.5719 12.5914 19.2223 13.9059 18.9479 15.0049C18.307 17.5703 16.6117 20.8558 15.1093 21.6577C14.797 21.8244 14.5253 21.8657 14.2795 21.7836C7.04867 18.469 5.5924 15.0377 5.30187 13.7154C5.24684 13.465 5.0129 13.2996 4.76373 13.3245C3.55186 13.0185 2.50588 12.2696 1.81302 11.21C1.09512 10.1122 0.841999 8.79623 1.10043 7.50469C1.15466 7.23349 0.978849 6.96971 0.707652 6.91543C0.436556 6.8613 0.17262 7.03701 0.11839 7.3082C-0.191813 8.85882 0.112332 10.4391 0.974843 11.7581C1.78513 12.9972 2.9993 13.8824 4.40937 14.2668C4.64847 15.0957 5.19041 16.2703 6.40478 17.6226C8.08254 19.491 10.5989 21.2006 13.884 22.704C13.8967 22.7099 13.9097 22.7151 13.9228 22.7198C14.122 22.7915 14.326 22.8273 14.5339 22.8273C14.8736 22.8273 15.2238 22.7318 15.5809 22.5412C16.6863 21.9512 17.628 20.5547 18.2234 19.487C18.9568 18.1718 19.575 16.6266 19.9195 15.2476C20.2306 14.0021 20.6392 12.4761 21.1344 10.7101C21.6481 10.467 22.1216 10.1345 22.5354 9.72073C24.4882 7.76783 24.4882 4.59028 22.5354 2.63737ZM18.9937 10.1862C17.9234 10.1862 16.9171 9.7694 16.1603 9.01255C15.4034 8.25569 14.9866 7.24942 14.9866 6.17905C14.9866 5.10869 15.4034 4.10236 16.1603 3.34556C16.9414 2.56436 17.9676 2.17374 18.9937 2.17374C20.0199 2.17374 21.046 2.56436 21.8272 3.34551C23.3896 4.90794 23.3897 7.45016 21.8272 9.01255C21.0704 9.7694 20.0641 10.1862 18.9937 10.1862Z" fill="#8A8A8A"/>
<path d="M18.066 5.25121C17.5545 5.76276 17.5545 6.59518 18.066 7.10682C18.3218 7.3626 18.6578 7.49049 18.9938 7.49049C19.3298 7.49049 19.6658 7.3626 19.9216 7.10682C20.4331 6.59523 20.4331 5.76281 19.9216 5.25126C19.4101 4.73966 18.5777 4.73966 18.066 5.25121ZM19.2135 6.39864C19.0923 6.51972 18.8953 6.51977 18.7742 6.39864C18.6531 6.27751 18.6531 6.08047 18.7742 5.95935C18.8348 5.89881 18.9143 5.86851 18.9939 5.86851C19.0734 5.86851 19.153 5.89876 19.2135 5.95935C19.3345 6.08047 19.3345 6.27751 19.2135 6.39864Z" fill="#8A8A8A"/>
<path d="M21.5535 3.61927C20.142 2.2078 17.8454 2.2078 16.434 3.61927C15.0225 5.03073 15.0225 7.32734 16.434 8.7388C17.1397 9.44453 18.0667 9.7974 18.9938 9.7974C19.9208 9.7974 20.8478 9.44453 21.5536 8.7388C22.965 7.32734 22.965 5.03073 21.5535 3.61927ZM20.8454 8.03067C19.8244 9.05171 18.1631 9.05171 17.1422 8.03067C16.1212 7.00967 16.1212 5.34845 17.1422 4.32745C17.6526 3.81696 18.3232 3.56173 18.9938 3.56173C19.6643 3.56173 20.3349 3.81696 20.8454 4.32745C21.8664 5.3484 21.8664 7.00967 20.8454 8.03067Z" fill="#8A8A8A"/>
</g>
<defs>
<clipPath id="clip0">
<rect width="24" height="24" fill="white"/>
</clipPath>
</defs>
</svg>
