<svg width="22" height="22" viewBox="0 0 22 22" fill="none" xmlns="http://www.w3.org/2000/svg">
<path d="M10.8432 10.5975C12.2991 10.5975 13.5596 10.0753 14.5899 9.04507C15.6198 8.015 16.1421 6.75464 16.1421 5.29857C16.1421 3.84301 15.62 2.58248 14.5897 1.55208C13.5595 0.52217 12.299 0 10.8432 0C9.38715 0 8.1268 0.52217 7.09672 1.55224C6.06665 2.58232 5.54431 3.84284 5.54431 5.29857C5.54431 6.75464 6.06665 8.01517 7.09672 9.04524C8.12713 10.0751 9.38766 10.5975 10.8432 10.5975V10.5975ZM8.00846 2.46382C8.79885 1.67343 9.72604 1.28923 10.8432 1.28923C11.9602 1.28923 12.8876 1.67343 13.6781 2.46382C14.4685 3.25437 14.8529 4.18172 14.8529 5.29857C14.8529 6.41576 14.4685 7.34294 13.6781 8.1335C12.8876 8.92406 11.9602 9.30826 10.8432 9.30826C9.72637 9.30826 8.79919 8.92389 8.00846 8.1335C7.21791 7.34311 6.83354 6.41576 6.83354 5.29857C6.83354 4.18172 7.21791 3.25437 8.00846 2.46382Z" fill="#8A8A8A"/>
<path d="M20.1149 16.9169C20.0852 16.4882 20.0251 16.0206 19.9366 15.5268C19.8473 15.0293 19.7324 14.559 19.5947 14.1291C19.4524 13.6848 19.2592 13.2461 19.02 12.8256C18.7721 12.3892 18.4807 12.0092 18.1538 11.6965C17.8119 11.3694 17.3933 11.1064 16.9092 10.9145C16.4268 10.7237 15.8922 10.627 15.3203 10.627C15.0958 10.627 14.8786 10.7191 14.4591 10.9922C14.201 11.1606 13.899 11.3553 13.562 11.5706C13.2738 11.7543 12.8834 11.9263 12.4012 12.0821C11.9307 12.2343 11.453 12.3115 10.9814 12.3115C10.51 12.3115 10.0323 12.2343 9.56154 12.0821C9.07982 11.9265 8.68924 11.7544 8.40155 11.5708C8.06771 11.3575 7.76558 11.1628 7.50357 10.9921C7.08446 10.719 6.86727 10.6268 6.64269 10.6268C6.07067 10.6268 5.53625 10.7237 5.05403 10.9147C4.57029 11.1062 4.15152 11.3692 3.80928 11.6967C3.48231 12.0095 3.19093 12.3894 2.94319 12.8256C2.70434 13.2461 2.51098 13.6847 2.36865 14.1293C2.23119 14.5591 2.11621 15.0293 2.02692 15.5268C1.93829 16.0199 1.87837 16.4877 1.84866 16.9174C1.81946 17.3375 1.80469 17.7747 1.80469 18.2165C1.80469 19.3649 2.16975 20.2946 2.88965 20.9803C3.60064 21.6569 4.54125 21.9999 5.68546 21.9999H16.2786C17.4225 21.9999 18.3631 21.6569 19.0742 20.9803C19.7943 20.2951 20.1594 19.3651 20.1594 18.2163C20.1592 17.7731 20.1443 17.3358 20.1149 16.9169V16.9169ZM18.1853 20.0462C17.7155 20.4933 17.0918 20.7107 16.2784 20.7107H5.68546C4.87191 20.7107 4.24819 20.4933 3.77856 20.0464C3.31782 19.6078 3.09392 19.0091 3.09392 18.2165C3.09392 17.8043 3.10751 17.3972 3.1347 17.0065C3.16122 16.6231 3.21544 16.202 3.29583 15.7545C3.37523 15.3126 3.47627 14.8978 3.59645 14.5224C3.71176 14.1623 3.86903 13.8058 4.06407 13.4624C4.25021 13.1351 4.46438 12.8543 4.70071 12.6281C4.92176 12.4164 5.20039 12.2432 5.52869 12.1133C5.83233 11.9931 6.17356 11.9273 6.544 11.9174C6.58915 11.9414 6.66955 11.9872 6.7998 12.0722C7.06482 12.2449 7.3703 12.4419 7.70801 12.6576C8.08869 12.9003 8.57913 13.1195 9.16509 13.3087C9.76413 13.5024 10.3751 13.6007 10.9815 13.6007C11.5879 13.6007 12.1991 13.5024 12.7978 13.3088C13.3842 13.1193 13.8745 12.9003 14.2557 12.6573C14.6013 12.4364 14.8982 12.245 15.1632 12.0722C15.2935 11.9874 15.3739 11.9414 15.419 11.9174C15.7896 11.9273 16.1309 11.9931 16.4347 12.1133C16.7628 12.2432 17.0414 12.4166 17.2625 12.6281C17.4988 12.8542 17.713 13.135 17.8991 13.4626C18.0943 13.8058 18.2518 14.1625 18.3669 14.5222C18.4873 14.8982 18.5885 15.3128 18.6677 15.7544C18.7479 16.2027 18.8023 16.624 18.8288 17.0067V17.007C18.8562 17.3962 18.87 17.8031 18.8701 18.2165C18.87 19.0092 18.6461 19.6078 18.1853 20.0462V20.0462Z" fill="#8A8A8A"/>
</svg>
