<svg width="22" height="22" viewBox="0 0 22 22" fill="none" xmlns="http://www.w3.org/2000/svg">
<path d="M14.6628 1.39979H13.2003C12.7995 0.563191 11.939 0 10.9767 0C10.019 0 9.17164 0.554082 8.76056 1.39979H7.31389C6.9273 1.39979 6.61401 1.71312 6.61401 2.09967V5.24919C6.61401 5.63578 6.92734 5.94907 7.31389 5.94907H14.6628C15.0494 5.94907 15.3627 5.63574 15.3627 5.24919V2.09967C15.3627 1.71312 15.0494 1.39979 14.6628 1.39979ZM13.9629 4.54932H8.01381V2.79959H9.25028C9.57503 2.79959 9.85708 2.57611 9.93172 2.25998C10.0323 1.83189 10.3946 1.39984 10.9767 1.39984C11.4876 1.39984 11.9157 1.74556 12.0176 2.24086C12.0846 2.56631 12.3708 2.79963 12.7031 2.79963H13.9629V4.54932Z" fill="#8A8A8A"/>
<path d="M18.139 3.03284H14.5929V4.43263H17.9057V20.6002H4.09445V4.43263H7.17398V3.03284H3.86117C3.21798 3.03284 2.6947 3.55611 2.6947 4.19931V20.8335C2.6947 21.4767 3.21798 21.9999 3.86117 21.9999H18.139C18.7822 21.9999 19.3055 21.4767 19.3055 20.8335V4.19935C19.3055 3.55615 18.7822 3.03284 18.139 3.03284Z" fill="#8A8A8A"/>
<path d="M10.1134 8.37537H7.22051C6.83392 8.37537 6.52063 8.68869 6.52063 9.07524C6.52063 9.46179 6.83396 9.77512 7.22051 9.77512H10.1134C10.4998 9.77512 10.8133 9.46179 10.8133 9.07524C10.8133 8.68869 10.5 8.37537 10.1134 8.37537Z" fill="#8A8A8A"/>
<path d="M14.7794 11.1749H7.22051C6.83392 11.1749 6.52063 11.4883 6.52063 11.8748C6.52063 12.2613 6.83396 12.5747 7.22051 12.5747H14.7794C15.1659 12.5747 15.4792 12.2613 15.4792 11.8748C15.4792 11.4883 15.1659 11.1749 14.7794 11.1749Z" fill="#8A8A8A"/>
<path d="M14.7794 13.9745H7.22051C6.83392 13.9745 6.52063 14.2878 6.52063 14.6744C6.52063 15.0609 6.83396 15.3742 7.22051 15.3742H14.7794C15.1659 15.3742 15.4792 15.0609 15.4792 14.6744C15.4793 14.2878 15.1659 13.9745 14.7794 13.9745Z" fill="#8A8A8A"/>
<path d="M14.7794 16.7742H7.22051C6.83392 16.7742 6.52063 17.0875 6.52063 17.474C6.52063 17.8606 6.83396 18.1739 7.22051 18.1739H14.7794C15.1659 18.1739 15.4792 17.8606 15.4792 17.474C15.4793 17.0875 15.1659 16.7742 14.7794 16.7742Z" fill="#8A8A8A"/>
</svg>
