<svg width="22" height="22" viewBox="0 0 22 22" fill="none" xmlns="http://www.w3.org/2000/svg">
<path d="M18.3047 21.3118H3.69531C2.60545 21.3118 1.71875 20.4251 1.71875 19.3352V8.93591C1.71875 8.55624 2.02654 8.24841 2.40625 8.24841C2.78596 8.24841 3.09375 8.55624 3.09375 8.93591V19.3352C3.09375 19.6669 3.36359 19.9368 3.69531 19.9368H18.3047C18.6364 19.9368 18.9062 19.6669 18.9062 19.3352V8.93591C18.9062 8.55624 19.214 8.24841 19.5938 8.24841C19.9735 8.24841 20.2812 8.55624 20.2812 8.93591V19.3352C20.2812 20.4251 19.3946 21.3118 18.3047 21.3118Z" fill="#E02828"/>
<path d="M21.3125 11.3419C21.1365 11.3419 20.9606 11.2748 20.8264 11.1405L12.2761 2.59033C11.5725 1.88667 10.4276 1.88667 9.7239 2.59033L1.17364 11.1406C0.905169 11.4091 0.469853 11.4091 0.201384 11.1406C-0.0671279 10.8721 -0.0671279 10.4368 0.201384 10.1683L8.75165 1.61803C9.99139 0.378299 12.0086 0.378299 13.2483 1.61803L21.7986 10.1683C22.0671 10.4368 22.0671 10.8721 21.7986 11.1405C21.6644 11.2748 21.4884 11.3419 21.3125 11.3419V11.3419Z" fill="#E02828"/>
<path d="M13.75 21.3119H8.25C7.87029 21.3119 7.5625 21.0041 7.5625 20.6244V14.5228C7.5625 13.3382 8.52629 12.3744 9.71094 12.3744H12.2891C13.4737 12.3744 14.4375 13.3382 14.4375 14.5228V20.6244C14.4375 21.0041 14.1297 21.3119 13.75 21.3119ZM8.9375 19.9369H13.0625V14.5228C13.0625 14.0964 12.7155 13.7494 12.2891 13.7494H9.71094C9.28447 13.7494 8.9375 14.0964 8.9375 14.5228V19.9369Z" fill="#E02828"/>
</svg>
