<svg width="270" height="261" viewBox="0 0 270 261" fill="none" xmlns="http://www.w3.org/2000/svg">
<g clip-path="url(#clip0)">
<path d="M20.9122 86.1581C20.9122 110.099 53.9325 128.628 77.9268 128.628C101.915 128.628 121.362 109.221 121.362 85.2734C121.362 61.3296 101.915 41.9211 77.9268 41.9211C53.9325 41.9211 20.9122 62.2143 20.9122 86.1581Z" fill="#CE5442"/>
<path d="M116.468 134.004L101.151 121.903L114.066 95.694L116.468 134.004Z" fill="#CE5442"/>
<path d="M200.22 71.2036L196.927 70.2413L200.694 66.3607L214.534 71.1273L200.22 71.2036Z" fill="#F0C541"/>
<path d="M199.929 76.5714L214.534 71.1273L200.321 69.2753L199.929 76.5714Z" fill="#FAD77E"/>
<path d="M214.534 71.1273L200.537 67.3648L201.593 60.7271L214.534 71.1273Z" fill="#FAD784"/>
<path d="M196.927 70.2413L200.321 69.2753L200.22 71.2035L196.927 70.2413Z" fill="#DAAB30"/>
<path d="M219.869 96.2011C219.869 103.53 213.916 109.471 206.575 109.471C199.235 109.471 193.283 103.53 193.283 96.2011V83.5409C193.283 76.2104 199.235 70.2705 206.575 70.2705C213.916 70.2705 219.869 76.2117 219.869 83.5409V96.2011Z" fill="#9B9A9A"/>
<path d="M149.017 101.406C150.137 127.347 164.736 147.908 181.612 147.316C198.477 146.733 211.22 125.22 210.113 99.2886C208.965 73.3276 194.372 52.7725 177.517 53.3585C160.654 53.9534 147.886 75.4503 149.017 101.406Z" fill="#F1B6AC"/>
<path d="M206.08 76.5676C206.08 76.5676 189.805 79.2102 161.777 68.6511C161.777 68.6511 140.243 89.1935 154.402 121.352C154.402 121.352 133.767 102.71 143.929 70.179C154.115 37.6501 175.177 43.7324 186.594 39.7348C198.009 35.732 210.904 42.8896 219.305 35.2884C227.6 27.7864 230.507 56.9354 206.08 76.5676Z" fill="#484748"/>
<path d="M143.392 101.186C143.575 108.293 146.77 113.911 150.536 113.722C154.283 113.524 157.146 107.611 156.954 100.504C156.762 93.3907 153.537 87.7788 149.805 87.9682C146.061 88.1601 143.19 94.0707 143.392 101.186Z" fill="#F69690"/>
<path d="M177.911 153C142.27 153 112.35 186.375 104 231.468L178 231.734L252 232C243.652 186.907 213.551 153 177.911 153Z" fill="#686969"/>
<path d="M190.459 165.011L179.565 177.929L168.663 165.011V140.526H190.459V165.011Z" fill="#F1B6AC"/>
<path d="M157.34 97.9946C157.34 105.325 151.391 111.262 144.046 111.262C136.708 111.262 130.755 105.325 130.755 97.9946V85.3357C130.755 78.0026 136.708 72.0653 144.046 72.0653C151.391 72.0653 157.34 78.0026 157.34 85.3357V97.9946Z" fill="#9B9A9A"/>
<path d="M183.389 39.1602H162.525C149.718 39.1602 139.342 49.5223 139.342 62.3032V76.5714H145.985V64.6611C145.985 54.4084 154.313 46.0966 164.585 46.0966H181.331C191.599 46.0966 199.929 54.4084 199.929 64.6611V76.5714H206.577V62.302C206.577 49.5223 196.197 39.1602 183.389 39.1602Z" fill="#9B9A9A"/>
<path d="M168.663 55.7227C168.663 55.7227 176.607 40.6512 187.183 39.5619C197.758 38.4738 209.654 40.8432 214.479 38.0671C219.305 35.2897 226.329 29.7515 225.28 39.5619C224.239 49.3723 228.123 71.5658 207.383 82.6575C207.383 82.6575 168.909 81.9558 161.776 68.6511L168.663 55.7227Z" fill="#484748"/>
<path d="M199.41 126.532C199.41 129.108 197.314 131.195 194.739 131.195H190.061C187.479 131.195 185.387 129.106 185.387 126.532C185.387 123.953 187.479 121.867 190.061 121.867H194.739C197.314 121.867 199.41 123.953 199.41 126.532Z" fill="#9B9A9A"/>
<path d="M201.458 129.733C198.348 129.733 195.089 129.489 192.046 129.151L192.747 122.938C200.246 123.783 208.302 123.454 210.014 122.269C212.352 114.942 209.907 106.173 209.882 106.084L215.904 104.376C216.031 104.818 218.959 115.334 215.862 124.528C214.51 128.533 208.355 129.733 201.458 129.733Z" fill="#9B9A9A"/>
<path d="M54.6484 89.3691C54.4935 91.5111 53.7005 93.1973 52.2695 94.4277C50.8477 95.6582 48.9701 96.2734 46.6367 96.2734C44.0846 96.2734 42.0749 95.4167 40.6074 93.7031C39.1491 91.9805 38.4199 89.6198 38.4199 86.6211V85.4043C38.4199 83.4902 38.7572 81.804 39.4316 80.3457C40.1061 78.8874 41.0677 77.7708 42.3164 76.9961C43.5742 76.2122 45.0326 75.8203 46.6914 75.8203C48.9883 75.8203 50.8385 76.4355 52.2422 77.666C53.6458 78.8965 54.457 80.6237 54.6758 82.8477H50.5742C50.474 81.5625 50.1139 80.6328 49.4941 80.0586C48.8835 79.4753 47.9492 79.1836 46.6914 79.1836C45.3242 79.1836 44.2988 79.6758 43.6152 80.6602C42.9408 81.6354 42.5944 83.153 42.5762 85.2129V86.7168C42.5762 88.8678 42.8997 90.4401 43.5469 91.4336C44.2031 92.4271 45.2331 92.9238 46.6367 92.9238C47.9036 92.9238 48.847 92.6367 49.4668 92.0625C50.0957 91.4792 50.4557 90.5814 50.5469 89.3691H54.6484ZM68.5801 91.8984H61.3887L60.0215 96H55.6602L63.0703 76.0938H66.8711L74.3223 96H69.9609L68.5801 91.8984ZM62.4961 88.5762H67.4727L64.9707 81.125L62.4961 88.5762ZM80.2832 92.7051H88.9922V96H76.1816V76.0938H80.2832V92.7051ZM95.459 92.7051H104.168V96H91.3574V76.0938H95.459V92.7051Z" fill="white"/>
</g>
<defs>
<clipPath id="clip0">
<rect width="270" height="261" fill="white"/>
</clipPath>
</defs>
</svg>
