<svg width="160" height="54" viewBox="0 0 160 54" fill="none" xmlns="http://www.w3.org/2000/svg">
<rect y="0.264771" width="160" height="53.4641" rx="8" fill="#E0E0E0"/>
<path fill-rule="evenodd" clip-rule="evenodd" d="M73.6002 18.4647H86.4002C87.7257 18.4647 88.8002 19.5392 88.8002 20.8647V33.6647C88.8002 34.9902 87.7257 36.0647 86.4002 36.0647H73.6002C72.2747 36.0647 71.2002 34.9902 71.2002 33.6647V20.8647C71.2002 19.5392 72.2747 18.4647 73.6002 18.4647ZM78.2402 28.1447L74.7202 32.5447H85.2802L82.6402 29.0247L80.8538 31.4095L78.2402 28.1447ZM84.4002 24.1847C84.4002 23.4543 83.8106 22.8647 83.0802 22.8647C82.3498 22.8647 81.7602 23.4543 81.7602 24.1847C81.7602 24.9151 82.3498 25.5047 83.0802 25.5047C83.8106 25.5047 84.4002 24.9151 84.4002 24.1847Z" fill="#ABABAB"/>
</svg>
