<svg width="160" height="121" viewBox="0 0 160 121" fill="none" xmlns="http://www.w3.org/2000/svg">
<rect y="0.264771" width="160" height="120.148" rx="8" fill="#E0E0E0"/>
<path fill-rule="evenodd" clip-rule="evenodd" d="M73.6002 51.4647H86.4002C87.7257 51.4647 88.8002 52.5392 88.8002 53.8647V66.6647C88.8002 67.9902 87.7257 69.0647 86.4002 69.0647H73.6002C72.2747 69.0647 71.2002 67.9902 71.2002 66.6647V53.8647C71.2002 52.5392 72.2747 51.4647 73.6002 51.4647ZM78.2402 61.1447L74.7202 65.5447H85.2802L82.6402 62.0247L80.8538 64.4095L78.2402 61.1447ZM84.4002 57.1847C84.4002 56.4543 83.8106 55.8647 83.0802 55.8647C82.3498 55.8647 81.7602 56.4543 81.7602 57.1847C81.7602 57.9151 82.3498 58.5047 83.0802 58.5047C83.8106 58.5047 84.4002 57.9151 84.4002 57.1847Z" fill="#ABABAB"/>
</svg>
