<svg width="360" height="149" viewBox="0 0 360 149" fill="none" xmlns="http://www.w3.org/2000/svg">
<rect width="360" height="142" rx="8" fill="#E0E0E0"/>
<path fill-rule="evenodd" clip-rule="evenodd" d="M173.6 66.2002H186.4C187.726 66.2002 188.8 67.2747 188.8 68.6002V81.4002C188.8 82.7257 187.726 83.8002 186.4 83.8002H173.6C172.275 83.8002 171.2 82.7257 171.2 81.4002V68.6002C171.2 67.2747 172.275 66.2002 173.6 66.2002ZM178.24 75.8802L174.72 80.2802H185.28L182.64 76.7602L180.854 79.145L178.24 75.8802ZM184.4 71.9202C184.4 71.1898 183.811 70.6002 183.08 70.6002C182.35 70.6002 181.76 71.1898 181.76 71.9202C181.76 72.6506 182.35 73.2402 183.08 73.2402C183.811 73.2402 184.4 72.6506 184.4 71.9202Z" fill="#ABABAB"/>
</svg>
