<svg width="28" height="91" viewBox="0 0 28 91" fill="none" xmlns="http://www.w3.org/2000/svg">
<g style="mix-blend-mode:luminosity">
<path d="M13.9417 90.5799C13.9417 90.5799 20.1645 90.5799 23.665 90.5799C27.1655 90.5799 27.2269 86.5934 27.2269 85.1124C27.2269 83.6315 27.2269 52.7663 27.2269 48.8942C27.2269 45.022 25.61 43.1814 25.61 43.1814C25.61 43.1814 27.2269 42.0601 27.2269 38.4154C27.2269 34.7703 25.7741 33.8401 25.7741 33.8401C26.955 32.7951 27.2952 32.7209 27.1655 26.6841C27.0359 20.6473 24.0541 16.0919 22.6275 13.244C21.2021 10.3969 17.8309 5.84062 17.8309 4.92944H13.9417H10.0513C10.0513 5.84062 6.68088 10.3969 5.25424 13.244C3.82885 16.0914 0.845876 20.6473 0.717425 26.6841C0.587316 32.7205 0.928341 32.7947 2.10802 33.8401C2.10802 33.8401 0.655273 34.7703 0.655273 38.4154C0.655273 42.0601 2.27293 43.1814 2.27293 43.1814C2.27293 43.1814 0.655273 45.022 0.655273 48.8942C0.655273 52.7663 0.655273 83.6311 0.655273 85.1124C0.655273 86.5938 0.717017 90.5799 4.21711 90.5799C7.71761 90.5799 13.9417 90.5799 13.9417 90.5799Z" fill="#E1E1E1"/>
<path d="M17.8153 6.07423H10.0676C9.3089 6.07423 8.69482 5.45932 8.69482 4.70146V1.95302C8.69482 1.19433 9.3089 0.579834 10.0676 0.579834H17.8153C18.5731 0.579834 19.1876 1.19433 19.1876 1.95302V4.70105C19.1876 5.45932 18.5731 6.07423 17.8153 6.07423Z" fill="#444444" fill-opacity="0.4"/>
</g>
</svg>
