<svg width="31" height="26" viewBox="0 0 31 26" fill="none" xmlns="http://www.w3.org/2000/svg">
<path d="M26.3173 2.95217C26.1452 2.95217 26.0053 2.81225 26.0053 2.64016V0.624011H17.7435C17.5714 0.624011 17.4329 0.484098 17.4329 0.312005C17.4329 0.141312 17.5714 0 17.7435 0H26.3173C26.4894 0 26.6293 0.141312 26.6293 0.312005V2.64016C26.6279 2.81225 26.4894 2.95217 26.3173 2.95217Z" fill="#656565"/>
<path d="M24.3127 7.6883H28.2135V5.90161H24.3127V7.6883Z" fill="#656565"/>
<path d="M24.5532 5.27919H27.9712V4.24803C27.9712 4.14449 27.8873 4.06055 27.7851 4.06055H24.7406C24.6371 4.06055 24.5518 4.14449 24.5518 4.24803V5.27919H24.5532Z" fill="#656565"/>
<path d="M25.4124 3.4363H27.1137V2.39115C27.1137 2.35757 27.0843 2.32959 27.0507 2.32959H25.4753C25.4417 2.32959 25.4124 2.35757 25.4124 2.39115V3.4363Z" fill="#656565"/>
<path d="M23.7908 18.7862C23.7908 20.1909 24.9241 21.334 26.3176 21.334C27.7097 21.334 28.843 20.1909 28.843 18.7862C28.843 17.3787 27.7097 16.2356 26.3176 16.2356C24.9241 16.2356 23.7908 17.3787 23.7908 18.7862ZM25.0304 18.4742H26.0056V17.4864C26.0056 17.3143 26.1455 17.1744 26.3176 17.1744C26.4897 17.1744 26.6296 17.3143 26.6296 17.4864V18.4742H27.6048C27.7755 18.4742 27.9154 18.6141 27.9154 18.7862C27.9154 18.9569 27.7755 19.0968 27.6048 19.0968H26.6296V20.0846C26.6296 20.2553 26.4897 20.3952 26.3176 20.3952C26.1455 20.3952 26.0056 20.2553 26.0056 20.0846V19.0968H25.0304C24.8583 19.0968 24.7184 18.9569 24.7184 18.7862C24.7184 18.6141 24.8583 18.4742 25.0304 18.4742Z" fill="#656565"/>
<path d="M29.5817 12.1447C28.5702 11.4325 27.97 10.2698 27.9714 9.03299L27.9727 8.31104H26.6296V15.6271C28.2204 15.7838 29.4656 17.1395 29.4656 18.7849C29.4656 20.5324 28.0525 21.9568 26.3176 21.9568C24.5813 21.9568 23.1695 20.5324 23.1695 18.7849C23.1695 17.1395 24.4162 15.7838 26.0056 15.6271V8.31104H24.5561L24.5617 9.18969C24.5701 10.3636 24.0034 11.4675 23.0478 12.1433C22.2629 12.6987 21.7942 13.6053 21.7942 14.5652V23.7239C21.7942 24.2387 22.2125 24.6585 22.7274 24.6585H29.9049C30.4198 24.6585 30.8382 24.2387 30.8382 23.7239V14.5721C30.8382 13.6081 30.3681 12.7001 29.5817 12.1447Z" fill="#656565"/>
<path d="M17.7463 2.01343C17.1125 2.89068 16.4172 4.03377 16.4284 4.50108C16.4437 5.25241 17.1405 5.7673 17.8205 5.74911C18.5774 5.72252 19.1804 5.12229 19.1651 4.40454C19.1539 3.94003 18.4151 2.84731 17.7463 2.01343Z" fill="#656565"/>
<path d="M2.35638 20.1505L2.38856 20.1659C3.72753 20.7592 5.20641 21.0572 6.6713 21.0334L6.84339 20.8613C5.92976 19.8525 5.76886 18.368 6.43904 17.1914C6.04589 16.7353 5.82902 16.1602 5.82902 15.5516C5.82902 14.8814 6.08926 14.2518 6.56217 13.7775C7.12322 13.215 7.92772 12.9548 8.70843 13.0723C8.80637 12.6218 9.02884 12.2147 9.35763 11.8831C9.44578 11.7949 9.53952 11.7096 9.63746 11.6326C9.62906 11.627 9.62067 11.6172 9.61227 11.6116C9.57729 11.5851 9.51853 11.5585 9.43738 11.5725L6.60414 12.1419C4.97275 12.4679 3.50507 13.2724 2.35498 14.4659V20.1505H2.35638Z" fill="#656565"/>
<path d="M0 20.0209H1.7657V14.5754H0V20.0209Z" fill="#656565"/>
<path d="M7.9769 20.4062L11.9882 24.4231L12.0232 24.4105C13.7637 23.7347 15.2832 22.593 16.4207 21.1085C16.429 21.0973 16.4374 21.0876 16.4472 21.0792L19.037 18.4852C19.2693 18.2529 19.2721 17.8654 19.0398 17.6317C18.809 17.3994 18.4172 17.4036 18.1877 17.6331L15.9589 19.8675C15.8428 19.9822 15.6539 19.9836 15.5392 19.8675C15.4245 19.7514 15.4245 19.5639 15.5392 19.4492L19.1615 15.8198C19.384 15.5988 19.384 15.2406 19.1629 15.0195C18.9475 14.8013 18.5879 14.8013 18.3682 15.0195L14.7445 18.6503C14.6284 18.765 14.4409 18.765 14.3261 18.6503C14.2114 18.5341 14.2114 18.3467 14.3261 18.2319L19.128 13.4231C19.3378 13.2104 19.3406 12.8565 19.1294 12.6438C18.9153 12.4325 18.5683 12.4325 18.3528 12.648L13.5496 17.4582C13.4321 17.5729 13.246 17.5729 13.1313 17.4582C13.0166 17.3183 13.0166 17.1784 13.1313 17.0385L16.7173 13.4469C16.9593 13.2035 16.9593 12.8117 16.7201 12.571C16.4808 12.329 16.0877 12.3304 15.8456 12.5738L11.5447 16.8818C11.4453 16.9825 11.2914 16.9965 11.1725 16.9209C11.0564 16.8426 11.0102 16.6943 11.0606 16.5642L11.3404 15.8506C11.6538 15.0545 11.6538 14.1772 11.3376 13.3811C11.2718 13.2146 11.0452 13.1923 10.9445 13.3406L9.34105 15.7485C8.42042 17.1378 7.95031 18.7454 7.9769 20.4062Z" fill="#656565"/>
<path d="M6.38867 22.1498L10.2307 26.0002L11.4801 24.7494L7.6381 20.9004L6.38867 22.1498Z" fill="#656565"/>
<path d="M8.33327 13.6333C7.83378 13.6333 7.34268 13.8292 6.97891 14.1944C6.23457 14.9415 6.23457 16.1574 6.97891 16.9045C6.9859 16.9101 6.9915 16.9171 6.9957 16.9227L7.01249 16.9381C7.11742 17.0374 7.13561 17.1983 7.05446 17.3173C6.39967 18.2841 6.49341 19.5741 7.26013 20.4401L7.38605 20.3142C7.37486 18.5695 7.87995 16.8821 8.85095 15.4228L10.4543 13.0093C10.8153 12.4805 11.6492 12.563 11.8857 13.1632C12.1865 13.923 12.2438 14.7443 12.0578 15.5278L13.2932 14.2909C13.531 13.5032 13.219 12.328 12.4215 11.8788C11.5429 11.3835 10.5271 11.5444 9.77437 12.2986C9.46796 12.605 9.28048 13.0135 9.2483 13.4459C9.23431 13.6236 9.05102 13.7635 8.87053 13.7075C8.69564 13.6599 8.51375 13.6333 8.33327 13.6333Z" fill="#656565"/>
</svg>
