<svg width="22" height="22" viewBox="0 0 22 22" fill="none" xmlns="http://www.w3.org/2000/svg">
<path d="M18.3333 0C16.3066 0 14.6667 1.63997 14.6667 3.66667C14.6667 3.9209 14.7025 4.17155 14.7526 4.41146L6.41667 8.59375C5.74349 7.82389 4.76953 7.33333 3.66667 7.33333C1.63997 7.33333 0 8.97331 0 11C0 13.0267 1.63997 14.6667 3.66667 14.6667C4.76953 14.6667 5.74349 14.1761 6.41667 13.4062L14.7526 17.5885C14.7025 17.8285 14.6667 18.0791 14.6667 18.3333C14.6667 20.36 16.3066 22 18.3333 22C20.36 22 22 20.36 22 18.3333C22 16.3066 20.36 14.6667 18.3333 14.6667C17.2305 14.6667 16.2565 15.1572 15.5833 15.9271L7.2474 11.7448C7.29753 11.5049 7.33333 11.2542 7.33333 11C7.33333 10.7458 7.29753 10.4951 7.2474 10.2552L15.5833 6.07292C16.2565 6.84277 17.2305 7.33333 18.3333 7.33333C20.36 7.33333 22 5.69336 22 3.66667C22 1.63997 20.36 0 18.3333 0Z" fill="#8A8A8A"/>
</svg>
