<svg width="36" height="36" viewBox="0 0 36 36" fill="none" xmlns="http://www.w3.org/2000/svg">
<g clip-path="url(#clip0)">
<path d="M22.4438 19.1819V20.0045C22.4438 20.2958 22.6799 20.5318 22.9712 20.5318C23.2625 20.5318 23.4985 20.2958 23.4985 20.0045V19.1819C23.4985 18.8906 23.2625 18.6545 22.9712 18.6545C22.6799 18.6545 22.4438 18.8906 22.4438 19.1819Z" fill="#E02828"/>
<path d="M25.9727 19.1819V20.0045C25.9727 20.2958 26.2088 20.5318 26.5001 20.5318C26.7914 20.5318 27.0274 20.2958 27.0274 20.0045V19.1819C27.0274 18.8906 26.7914 18.6545 26.5001 18.6545C26.2088 18.6545 25.9727 18.8906 25.9727 19.1819Z" fill="#E02828"/>
<path d="M29.5016 19.1819V20.0045C29.5016 20.2958 29.7377 20.5318 30.029 20.5318C30.3203 20.5318 30.5563 20.2958 30.5563 20.0045V19.1819C30.5563 18.8906 30.3203 18.6545 30.029 18.6545C29.7377 18.6545 29.5016 18.8906 29.5016 19.1819Z" fill="#E02828"/>
<path d="M24.7593 8.32885H24.7352C23.4463 8.32885 22.1867 8.54478 20.9839 8.9701C20.5003 8.14885 19.9091 7.38357 19.2162 6.69296C17.0896 4.57332 14.2665 3.40698 11.2645 3.40698H11.2406C9.9807 3.40958 8.74095 3.622 7.55577 4.03825C7.28099 4.13472 7.13642 4.43572 7.23296 4.71057C7.3295 4.98542 7.63037 5.13013 7.90529 5.03338C8.97861 4.65643 10.1015 4.46406 11.2429 4.46174H11.2645C13.9853 4.46174 16.5443 5.51903 18.4717 7.44003C20.331 9.29311 21.4699 11.8313 21.474 14.6561C21.478 17.3375 20.4397 19.877 18.5504 21.8067C16.6392 23.7588 14.1099 24.8283 11.4642 24.879C10.6595 24.8954 9.85582 24.816 9.07655 24.6456C8.48705 24.5167 7.87611 24.5608 7.3096 24.7729L3.01696 26.3797L3.86725 24.6487C4.41604 23.5315 4.25277 22.1951 3.45156 21.2438C1.90483 19.4071 1.05356 17.0714 1.05469 14.6667C1.05623 11.0878 2.98469 7.72156 6.08743 5.88191C6.33789 5.73341 6.42057 5.4099 6.27207 5.15938C6.12357 4.90892 5.80007 4.82624 5.54954 4.97474C3.89397 5.95637 2.5053 7.35305 1.53358 9.0139C0.531211 10.7271 0.0009152 12.6817 1.13941e-06 14.6663C-0.00119417 17.3193 0.938109 19.8966 2.64487 21.9231C3.17671 22.5545 3.28499 23.4419 2.92064 24.1836L1.7519 26.5627C1.61226 26.8469 1.65951 27.1823 1.87207 27.4169C2.08582 27.6527 2.41551 27.7308 2.71033 27.6205L7.67938 25.7605C8.05534 25.6199 8.46055 25.5905 8.85134 25.676C9.71112 25.8639 10.5971 25.95 11.4844 25.9336C12.7088 25.9101 13.9019 25.6896 15.0279 25.289C17.0151 28.6597 20.608 30.7806 24.5155 30.8555C25.4034 30.8723 26.2887 30.7858 27.1486 30.5978C27.5395 30.5125 27.9447 30.5417 28.3207 30.6825L33.2897 32.5424C33.9391 32.7851 34.5547 32.1089 34.248 31.4846L33.0794 29.1054C32.7263 28.3866 32.8208 27.5169 33.3204 26.8898C33.5019 26.662 33.4643 26.3302 33.2365 26.1487C33.0088 25.9674 32.6769 26.0049 32.4955 26.2326C31.7431 27.1772 31.6007 28.4873 32.1328 29.5704L32.9831 31.3014L28.6905 29.6947C28.1241 29.4825 27.5132 29.4386 26.9235 29.5673C26.144 29.7378 25.3406 29.8169 24.5358 29.8008C21.0455 29.7339 17.8318 27.8642 16.0148 24.8835C17.2259 24.3165 18.3394 23.5298 19.3042 22.5443C21.388 20.4159 22.5331 17.6139 22.5288 14.6544C22.5263 12.9892 22.1644 11.3798 21.4809 9.91418C22.5267 9.56213 23.6185 9.38339 24.7353 9.38339H24.7572C30.3725 9.39499 34.9429 13.9729 34.9454 19.5885C34.9462 21.3304 34.5004 23.0501 33.6565 24.5617C33.5145 24.816 33.6056 25.1373 33.8599 25.2793C34.1137 25.4209 34.4352 25.3307 34.5774 25.0758C35.509 23.4073 36.0009 21.5096 36.0001 19.588C35.9973 13.3925 30.9547 8.34164 24.7593 8.32885Z" fill="#E02828"/>
<path d="M6.56733 14.1534L9.4204 17.0065C9.62641 17.2124 9.96026 17.2124 10.1662 17.0065C10.3721 16.8005 10.3721 16.4666 10.1662 16.2607L7.31313 13.4076C6.57724 12.6718 6.57724 11.4745 7.31313 10.7386L7.79906 10.2526L10.3166 12.7702L9.89606 13.1906C9.4204 13.6663 9.4204 14.4402 9.89606 14.9159L11.0199 16.0397C11.4957 16.5154 12.2695 16.5153 12.7452 16.0396L13.1657 15.6192L15.6831 18.1367L15.1971 18.6226C14.4613 19.3586 13.264 19.3586 12.5281 18.6226L11.659 17.7535C11.453 17.5476 11.1191 17.5476 10.9132 17.7535C10.7073 17.9595 10.7073 18.2934 10.9132 18.4993L11.7823 19.3684C12.3559 19.9419 13.1093 20.2287 13.8627 20.2287C14.6161 20.2287 15.3695 19.9419 15.943 19.3684L16.5745 18.737C16.7348 18.5766 16.8231 18.3635 16.8231 18.1367C16.8231 17.9099 16.7347 17.6967 16.5745 17.5364L13.766 14.7279C13.4349 14.3969 12.8964 14.3968 12.5654 14.728L11.9994 15.294C11.9351 15.3584 11.8303 15.3586 11.7657 15.294L10.6419 14.1702C10.5775 14.1058 10.5775 14.001 10.6419 13.9366L11.208 13.3705C11.539 13.0395 11.539 12.5009 11.208 12.1699L8.39953 9.36156C8.23922 9.20118 8.02603 9.11279 7.7992 9.11279C7.57245 9.11279 7.35933 9.20111 7.19895 9.36142L6.56747 9.99289C5.42032 11.1399 5.42032 13.0063 6.56733 14.1534Z" fill="#E02828"/>
</g>
<defs>
<clipPath id="clip0">
<rect width="36" height="36" fill="white"/>
</clipPath>
</defs>
</svg>
