<svg width="18" height="18" viewBox="0 0 18 18" fill="none" xmlns="http://www.w3.org/2000/svg">
<path d="M14.8304 2.08386C14.1936 1.59867 13.4583 1.16944 12.6982 0.83943C11.3143 0.23874 9.86258 -0.0421897 8.3835 0.00511661C5.61265 0.0933105 3.58968 1.31427 2.59036 2.075H0.392822V18H17.6073V2.07404L14.8304 2.08386ZM17.0753 17.4681H0.924752V2.60693H2.772L2.84402 2.55097C3.76479 1.83549 5.71102 0.622368 8.40045 0.536798C9.8006 0.4924 11.1752 0.758258 12.4863 1.32739C13.2355 1.65257 13.9584 2.07879 14.577 2.56008L14.6495 2.61643L17.0753 2.60788V17.4681Z" fill="#656565"/>
<path d="M15.8073 16.1873H2.15516V3.66926H3.53233V3.13733H1.62323V16.7193H16.3393V8.8566H15.8073V16.1873Z" fill="#656565"/>
<path d="M15.8073 7.58435H16.3393V8.22047H15.8073V7.58435Z" fill="#656565"/>
<path d="M6.07038 6.7118C7.00087 6.41803 7.96565 6.2798 8.93748 6.30076C9.78488 6.3191 10.6252 6.45896 11.4352 6.71652L11.6567 6.78695L13.5165 2.85935L13.2888 2.74127C12.2631 2.2092 10.6032 1.58386 8.52116 1.62943C7.02037 1.66191 5.51966 2.04639 4.18122 2.7413L3.9516 2.86049L5.85123 6.78099L6.07038 6.7118ZM5.42965 2.77953L5.83754 3.6392L6.31812 3.41118L5.93013 2.59339C6.25783 2.49023 6.59093 2.40502 6.9275 2.33821L7.03743 3.25185L7.56556 3.18834L7.45258 2.2493C7.79114 2.20185 8.13186 2.17295 8.47279 2.16331V3.4177H9.00472V2.16324C9.34196 2.17309 9.66626 2.20086 9.97631 2.24281L9.86251 3.18837L10.3906 3.25195L10.5016 2.32948C10.8581 2.39867 11.1929 2.48491 11.5036 2.58151L11.1099 3.41121L11.5905 3.63923L11.9984 2.77957C11.9984 2.77957 12.5075 2.95003 12.8147 3.09862L11.3737 6.14179C10.7134 5.94962 10.1218 5.83078 9.43742 5.7866L8.52275 4.16432L8.05856 4.42404L8.81028 5.76745C8.78851 5.76731 8.7667 5.76674 8.74492 5.76674C7.86036 5.76674 6.98278 5.89135 6.1307 6.13785L4.65754 3.09745C4.95088 2.95539 5.42965 2.77953 5.42965 2.77953Z" fill="#656565"/>
<path d="M13.9455 3.66926H15.8073V6.94825H16.3392V3.13733H13.9455V3.66926Z" fill="#656565"/>
<path d="M3.56854 13.327H4.1015V13.86H3.56854V13.327Z" fill="#656565"/>
<path d="M3.56854 15.1036H4.1015V15.6366H3.56854V15.1036Z" fill="#656565"/>
<path d="M4.45691 14.2153H4.98986V14.7483H4.45691V14.2153Z" fill="#656565"/>
<path d="M2.68018 14.2153H3.21314V14.7483H2.68018V14.2153Z" fill="#656565"/>
<path d="M14.1678 5.29871H14.7007V5.83167H14.1678V5.29871Z" fill="#656565"/>
<path d="M14.1678 4.25354H14.7007V4.7865H14.1678V4.25354Z" fill="#656565"/>
</svg>
