<svg width="18" height="17" viewBox="0 0 18 17" fill="none" xmlns="http://www.w3.org/2000/svg">
<g opacity="0.8" clip-path="url(#clip0)">
<path d="M17.0769 2.83337H0.923098C0.415371 2.83337 0 3.22567 0 3.70516V13.2949C0 13.7744 0.415371 14.1667 0.923098 14.1667H17.0769C17.5846 14.1667 18 13.7744 18 13.2949V3.70516C18 3.22567 17.5846 2.83337 17.0769 2.83337ZM16.7305 3.48718L9.531 8.58724C9.40156 8.68028 9.20285 8.73848 8.99996 8.73762C8.79711 8.73848 8.59845 8.68028 8.46896 8.58724L1.26946 3.48718H16.7305ZM12.8848 8.92376L16.8079 13.5007C16.8118 13.5053 16.8166 13.5088 16.8208 13.5129H1.17921C1.18336 13.5086 1.18821 13.5053 1.19215 13.5007L5.11523 8.92376C5.23543 8.78341 5.21265 8.57765 5.06377 8.46386C4.91516 8.35034 4.6973 8.37185 4.57706 8.51224L0.692297 13.0445V3.89584L8.0538 9.11026C8.33052 9.30489 8.66718 9.39056 8.99993 9.39142C9.33223 9.39076 9.66916 9.30509 9.94605 9.11026L17.3076 3.89584V13.0444L13.4229 8.51224C13.3027 8.37189 13.0846 8.35031 12.9362 8.46386C12.7873 8.57738 12.7645 8.78341 12.8848 8.92376Z" fill="#656565"/>
</g>
<defs>
<clipPath id="clip0">
<rect width="18" height="17" fill="white"/>
</clipPath>
</defs>
</svg>
