<svg width="23" height="71" viewBox="0 0 23 71" fill="none" xmlns="http://www.w3.org/2000/svg">
<g style="mix-blend-mode:luminosity">
<path d="M11.6684 5.4646H16.443C16.443 5.4646 16.443 6.89667 16.443 7.34908C16.443 7.80148 19.9566 9.91176 21.5784 13.0013C23.1995 16.0912 22.93 18.6535 22.93 18.6535V62.8932C22.93 62.8932 21.8479 69.0723 18.8753 69.5251C18.8753 69.5251 18.1542 70.7301 15.6316 70.7301C13.109 70.7301 12.9293 69.6752 12.8395 69.2989C12.7489 68.9226 12.1779 69.3074 11.668 69.3074C11.1582 69.3074 10.5872 68.923 10.497 69.2989C10.4063 69.6752 10.2262 70.7301 7.70362 70.7301C5.18141 70.7301 4.46113 69.5251 4.46113 69.5251C1.48732 69.0723 0.406486 62.8932 0.406486 62.8932V18.6539C0.406486 18.6539 0.13658 16.0912 1.75803 13.0017C3.37948 9.91216 6.8931 7.80148 6.8931 7.34948C6.8931 6.89708 6.8931 5.465 6.8931 5.465H11.6684V5.4646Z" fill="#E1E1E1"/>
<path d="M15.2567 6.78572H8.08055C7.18182 6.78572 6.45264 6.05653 6.45264 5.15739V2.35839C6.45264 1.45925 7.18222 0.730469 8.08055 0.730469H15.2567C16.1554 0.730469 16.8846 1.45925 16.8846 2.35839V5.15739C16.8846 6.05613 16.1554 6.78572 15.2567 6.78572Z" fill="#444444" fill-opacity="0.4"/>
</g>
</svg>
