<svg width="20" height="20" viewBox="0 0 20 20" fill="none" xmlns="http://www.w3.org/2000/svg">
<path d="M10 0C4.48566 0 0 4.48566 0 10C0 15.5143 4.48566 20 10 20C15.5143 20 20 15.5136 20 10C20 4.48645 15.5143 0 10 0ZM10 18.4508C5.34082 18.4508 1.54918 14.66 1.54918 10C1.54918 5.34004 5.34082 1.54918 10 1.54918C14.6592 1.54918 18.4508 5.34004 18.4508 10C18.4508 14.66 14.66 18.4508 10 18.4508Z" fill="#C4C4C4"/>
<path d="M10.7747 9.15564H13.873C14.3014 9.15564 14.6476 9.50267 14.6476 9.93025C14.6476 10.3578 14.3014 10.7049 13.873 10.7049H10.7747H6.12709C5.69873 10.7049 5.35248 10.3578 5.35248 9.93025C5.35248 9.50267 5.69873 9.15564 6.12709 9.15564H10.7747Z" fill="#E02828"/>
</svg>
