<svg width="41" height="41" viewBox="0 0 41 41" fill="none" xmlns="http://www.w3.org/2000/svg">
<g clip-path="url(#clip0)">
<path d="M40.834 3.55944C40.6827 3.40786 40.4586 3.35485 40.2556 3.42185L33.6423 5.60426C33.4554 5.66596 33.3138 5.82018 33.2682 6.01173C33.2229 6.20318 33.2799 6.40455 33.419 6.54375L34.1713 7.29585L32.4123 9.055C30.454 7.74112 28.0991 7.1112 25.7266 7.27799C23.1643 7.45715 20.7517 8.55738 18.9331 10.3758C18.5496 10.7593 18.1967 11.1732 17.8768 11.6078C14.4434 10.8582 10.7092 11.8131 8.04508 14.4773C6.22658 16.2957 5.12635 18.7083 4.947 21.2706C4.78097 23.6432 5.41032 25.9981 6.72411 27.9565L4.96514 29.7155L4.21266 28.9632C4.10635 28.8568 3.96224 28.797 3.81181 28.797C3.66137 28.797 3.51726 28.8568 3.41095 28.9632L1.28637 31.0878C1.06487 31.3092 1.06487 31.6682 1.28637 31.8896L2.03866 32.6419L0.166394 34.514C-0.0551075 34.7355 -0.0551075 35.0945 0.166205 35.3158L2.29088 37.4405C2.39718 37.5469 2.54129 37.6066 2.69173 37.6066C2.84217 37.6066 2.98628 37.5469 3.09259 37.4406L4.96505 35.5682L5.71734 36.3203C5.93846 36.5417 6.29764 36.5418 6.51905 36.3204L8.64353 34.1959C8.75003 34.0895 8.80966 33.9454 8.80966 33.795C8.80966 33.6446 8.75003 33.5004 8.64353 33.394L7.89124 32.6418L9.65087 30.8823C11.4033 32.0578 13.4724 32.6859 15.5883 32.6859C15.8369 32.6859 16.0866 32.6772 16.336 32.6598C18.8983 32.4805 21.3109 31.3803 23.1293 29.5618C23.5105 29.1807 23.8617 28.7694 24.18 28.3378C24.9257 28.5005 25.6939 28.5844 26.4754 28.5844C29.3243 28.5843 32.0029 27.4749 34.0175 25.4603C35.836 23.6418 36.9362 21.2292 37.1156 18.6669C37.2816 16.2945 36.6524 13.9397 35.3386 11.9813L37.0976 10.222L37.8499 10.9743C37.9891 11.1136 38.191 11.1702 38.3818 11.1252C38.5734 11.0796 38.7275 10.9381 38.7894 10.7511L40.9717 4.13795C41.0387 3.93468 40.9856 3.71082 40.834 3.55944ZM22.3276 28.7601C19.0151 32.0725 13.6829 32.4722 9.92416 29.6892L9.92359 29.6901C9.70152 29.5256 9.38779 29.5421 9.18661 29.7431L6.68877 32.241C6.58227 32.3474 6.52264 32.4916 6.52264 32.6419C6.52264 32.7924 6.58227 32.9365 6.68877 33.0429L7.44106 33.7951L6.11829 35.1178L5.366 34.3657C5.14488 34.1442 4.78569 34.1443 4.56429 34.3656L2.69192 36.2378L1.36915 34.915L3.24142 33.0429C3.46292 32.8214 3.46292 32.4624 3.24161 32.2411L2.48932 31.4887L3.8119 30.1659L4.56438 30.9182C4.78569 31.1397 5.14488 31.1397 5.36609 30.9182L7.86393 28.4202C8.06512 28.2191 8.08156 27.9057 7.91732 27.6838L7.9178 27.6827C5.13476 23.9242 5.53411 18.5918 8.84689 15.2791C12.5636 11.5625 18.6109 11.5625 22.3276 15.2791C24.6572 17.6087 25.6091 20.9687 24.8767 24.1592C24.2373 23.9965 23.6186 23.7343 23.0445 23.3735C23.4914 20.9205 22.7227 18.4364 20.9466 16.6602C19.5149 15.2287 17.6117 14.4402 15.5872 14.4402C13.5627 14.4402 11.6595 15.2286 10.2278 16.6602C8.79652 18.0917 8.00804 19.9949 8.00804 22.0194C8.00804 24.0439 8.79652 25.9471 10.228 27.3786C11.6596 28.8102 13.5629 29.5987 15.5874 29.5987C15.5876 29.5987 15.5874 29.5987 15.5876 29.5987C17.6119 29.5987 19.5152 28.8103 20.9466 27.3788C21.0161 27.3094 21.0833 27.2369 21.1503 27.1643C21.7399 27.5052 22.3597 27.7874 23.0023 28.008C22.7905 28.2694 22.566 28.5216 22.3276 28.7601ZM23.1294 14.4773C22.7339 14.082 22.3148 13.7242 21.8766 13.404C21.8906 13.3899 21.9038 13.3747 21.9179 13.3606C23.1353 12.1433 24.7538 11.4729 26.4754 11.4729C28.197 11.4729 29.8155 12.1434 31.0328 13.3607C32.2502 14.5782 32.9208 16.1967 32.9208 17.9182C32.9208 19.6398 32.2504 21.2583 31.033 22.4756C29.6552 23.8532 27.8041 24.4739 25.9987 24.341C26.7872 20.793 25.7185 17.0665 23.1294 14.4773ZM22.0103 22.5648C21.9794 22.5352 21.9483 22.5059 21.9178 22.4756C20.5542 21.1121 19.8894 19.2576 20.0527 17.3746C20.0832 17.404 20.1146 17.4321 20.1446 17.4621C21.5086 18.8262 22.1739 20.6814 22.0103 22.5648ZM18.9333 25.4603C19.3264 25.8535 19.7452 26.2117 20.1854 26.5344C20.1716 26.5484 20.1587 26.5633 20.1448 26.5771C18.9274 27.7944 17.3089 28.4648 15.5873 28.4648C13.8656 28.4648 12.2472 27.7943 11.0298 26.5768C9.81237 25.3595 9.14182 23.741 9.14182 22.0195C9.14182 20.2981 9.81218 18.6794 11.0296 17.462C12.247 16.2446 13.8654 15.5742 15.5871 15.5742C15.7477 15.5742 15.9074 15.5803 16.066 15.5919C15.2751 19.1414 16.343 22.87 18.9333 25.4603ZM38.001 9.52173L37.4989 9.01947C37.3924 8.91307 37.2483 8.85335 37.0978 8.85335C36.9476 8.85335 36.8033 8.91307 36.697 9.01947L34.1988 11.5177C33.9976 11.7189 33.9812 12.0324 34.1456 12.2545L34.1449 12.2551C36.9279 16.0137 36.5286 21.346 33.2158 24.6586C31.4153 26.4591 29.0215 27.4506 26.4755 27.4506C23.9293 27.4506 21.5355 26.4591 19.735 24.6585C17.4045 22.3281 16.4532 18.9664 17.1875 15.7746C17.8354 15.9401 18.452 16.2055 19.0185 16.5633C18.5711 19.0167 19.3397 21.5014 21.1161 23.2776C21.4129 23.5743 21.7289 23.8397 22.0592 24.0769C22.0803 24.0936 22.1022 24.1094 22.1256 24.1231C23.4261 25.0356 24.9502 25.4939 26.4754 25.4939C28.4163 25.4939 30.3572 24.7552 31.8346 23.2776C33.2662 21.8461 34.0545 19.9429 34.0545 17.9184C34.0545 15.8938 33.2661 13.9907 31.8346 12.559C30.403 11.1274 28.4997 10.3391 26.4752 10.3391C24.4509 10.3391 22.5475 11.1275 21.116 12.559C21.0458 12.6292 20.9778 12.7027 20.9099 12.7761C20.315 12.4337 19.6934 12.1553 19.0554 11.9369C19.2685 11.673 19.4943 11.4183 19.7347 11.1778C23.0477 7.86529 28.3799 7.46594 32.1384 10.2488C32.1384 10.2488 32.5594 10.4956 32.8762 10.1948L35.3741 7.6967C35.4804 7.5904 35.54 7.44619 35.54 7.29585C35.54 7.14541 35.4802 7.00121 35.3739 6.8949L34.8717 6.39283L39.5422 4.85159L38.001 9.52173Z" fill="#656565" fill-opacity="0.8"/>
</g>
<defs>
<clipPath id="clip0">
<rect width="41" height="41" fill="white"/>
</clipPath>
</defs>
</svg>
