<svg width="56" height="56" viewBox="0 0 56 56" fill="none" xmlns="http://www.w3.org/2000/svg">
<path d="M8.27366 12.0583C6.55022 15.0312 6.57722 18.6392 8.34613 21.7094C10.2222 24.9839 13.6997 27.012 17.4738 27.0327C17.4882 27.0327 17.5021 27.0318 17.5165 27.0318L20.7451 50.9962C21.1372 53.853 23.5713 55.986 26.4547 56H38.215C41.0983 55.986 43.5325 53.8526 43.9245 50.9958L48.9198 13.9298C48.9643 13.6084 48.8635 13.2839 48.6452 13.0435C48.4237 12.8 48.1069 12.6654 47.7779 12.6749H26.9588C26.8796 12.4805 26.7841 12.2937 26.6725 12.1159C26.6545 12.0853 26.6352 12.0412 26.6149 12.0123L18.4118 0.502315C18.1975 0.194444 17.8492 0.00765174 17.4747 0H17.4738C17.1002 0.00495114 16.7518 0.188593 16.5367 0.493763L8.33353 11.9588C8.31237 11.9894 8.29212 12.0263 8.27366 12.0583ZM41.6407 50.6879C41.4057 52.4032 39.9456 53.6847 38.215 53.6955H26.4547C24.7236 53.6847 23.2639 52.4032 23.0289 50.6879L20.3711 30.963C21.5062 31.1102 22.2233 31.45 23.0222 31.8322C24.1731 32.3827 25.4779 33.0051 27.9589 33.0051C30.4403 33.0051 31.7452 32.3804 32.8965 31.8299C33.961 31.3204 34.8806 30.8802 36.839 30.8802C38.7978 30.8802 39.717 31.32 40.7819 31.829C41.6402 32.24 42.5841 32.6968 44.0375 32.8998L41.6407 50.6879ZM46.4599 14.9794L44.3454 30.6385C43.2579 30.4855 42.5553 30.1366 41.7757 29.764C40.6248 29.2135 39.32 28.5824 36.8385 28.5824C34.3571 28.5824 33.0527 29.2027 31.9018 29.7536C30.8369 30.2627 29.9173 30.7006 27.9589 30.7006C26.0001 30.7006 25.0814 30.26 24.0165 29.7514C23.0267 29.2778 21.9221 28.7503 20.0547 28.6117L19.8058 26.7649C22.6756 26.1037 25.1408 24.2785 26.6109 21.7269C27.8369 19.593 28.2191 17.1687 27.7573 14.9794H46.4599ZM10.2402 13.2605L17.472 3.15792L24.7065 13.292C26.0014 15.5484 25.9677 18.1905 24.6124 20.5494C23.1644 23.1285 20.4377 24.726 17.4801 24.7278C14.5224 24.73 11.7935 23.1362 10.3423 20.5589C8.97942 18.1923 8.94297 15.5353 10.2402 13.2605Z" fill="#9B9A9A"/>
<path d="M17.4401 22.7434C20.824 22.7389 23.566 19.9968 23.5701 16.613C23.5701 15.9765 23.0542 15.4607 22.4178 15.4607C21.7813 15.4607 21.2655 15.9765 21.2655 16.613C21.2628 18.7248 19.5515 20.4357 17.4401 20.4388C16.8037 20.4388 16.2878 20.9546 16.2878 21.5911C16.2878 22.2271 16.8037 22.7434 17.4401 22.7434Z" fill="#DBDADA"/>
</svg>
