<svg width="18" height="18" viewBox="0 0 18 18" fill="none" xmlns="http://www.w3.org/2000/svg">
<path d="M8.76814 17.9883C8.6272 17.9517 8.55088 17.7979 8.59373 17.6587C8.92638 16.5781 8.88613 15.8558 8.47076 15.4503C7.97249 14.9639 7.04876 15.1791 6.85178 15.2324C6.25497 15.6625 5.55533 15.9014 4.86202 15.9014C4.16853 15.9014 3.46875 15.6624 2.87183 15.2321C2.67453 15.1777 1.75604 14.9596 1.25328 15.4503C0.837873 15.8558 0.797654 16.5781 1.1303 17.6587C1.17316 17.7978 1.09507 17.9454 0.955892 17.9883C0.816779 18.0311 0.669159 17.953 0.626303 17.8138C0.229918 16.5263 0.314504 15.6297 0.884912 15.073C1.26365 14.7033 1.76712 14.6074 2.19697 14.6098C1.81433 14.1612 1.54128 13.6327 1.39162 13.0587C0.561616 12.9834 0.379578 12.456 0.379578 12.0081V11.3216C0.379578 10.9339 0.694998 10.6185 1.0827 10.6185C1.14338 10.6185 1.20227 10.6263 1.25848 10.6408V10.509C1.25848 10.0838 1.33192 9.66733 1.47673 9.2713C1.52676 9.13451 1.67821 9.0643 1.81493 9.11422C1.95169 9.16425 2.02204 9.31563 1.97201 9.45242C1.84847 9.79024 1.78582 10.1457 1.78582 10.509V12.0081C1.78582 14.0216 3.37643 15.3741 4.86198 15.3741C6.34754 15.3741 7.93814 14.0216 7.93814 12.0081V10.509C7.93814 8.81279 6.55819 7.43285 4.86198 7.43285C3.94367 7.43285 3.08034 7.83862 2.49334 8.54617C2.40035 8.65825 2.2341 8.67368 2.12206 8.58073C2.00998 8.48774 1.99451 8.32152 2.0875 8.20944C2.77504 7.38078 3.78628 6.9055 4.86198 6.9055C5.63208 6.9055 6.34652 7.14833 6.93278 7.56141C6.88237 7.34306 6.8496 7.12157 6.83551 6.89946C6.11213 6.81062 5.95119 6.33692 5.95119 5.93312V5.16795C5.95119 4.78025 6.26661 4.46483 6.65431 4.46483C6.71408 4.46483 6.77212 4.47231 6.82756 4.48641V3.86717C6.82756 1.73481 8.56237 0 10.6947 0C11.8492 0 12.9344 0.510045 13.6722 1.39935C13.7652 1.51143 13.7497 1.67768 13.6377 1.77064C13.5256 1.86363 13.3594 1.84816 13.2664 1.73608C12.6291 0.967918 11.6918 0.527342 10.6948 0.527342C8.85322 0.527342 7.35497 2.02559 7.35497 3.86717V6.65052C7.35497 8.56262 8.91566 10.2399 10.6948 10.2399C12.4739 10.2399 14.0346 8.56266 14.0346 6.65052V3.86717C14.0346 3.47279 13.9666 3.08685 13.8325 2.72003C13.7825 2.58327 13.8528 2.43185 13.9896 2.38183C14.1265 2.33183 14.2777 2.40218 14.3278 2.5389C14.4832 2.96391 14.562 3.41081 14.562 3.86717V4.48641C14.6174 4.47231 14.6755 4.46483 14.7353 4.46483C15.123 4.46483 15.4384 4.78025 15.4384 5.16795V5.93312C15.4384 6.33689 15.2774 6.81062 14.5541 6.89946C14.494 7.84597 14.0946 8.78256 13.4376 9.5021C13.2926 9.6609 13.1389 9.80585 12.9778 9.93624C13.0117 10.6629 13.3659 11.1067 14.9144 11.4384C15.414 11.5297 15.8843 11.7353 16.2978 12.0459C16.4142 12.1333 16.4377 12.2986 16.3502 12.415C16.2628 12.5315 16.0975 12.555 15.9811 12.4675C15.6561 12.2233 15.1011 11.9116 14.3128 11.9116C12.7796 11.9116 11.5323 13.1589 11.5323 14.6921C11.5323 16.2252 12.7796 17.4726 14.3127 17.4726C15.8459 17.4726 17.0932 16.2253 17.0932 14.6921C17.0932 14.2345 16.9827 13.7908 16.7715 13.3923L14.2628 15.901C14.16 16.0038 13.9927 16.0038 13.8899 15.901L12.4325 14.4437C12.3296 14.3407 12.3296 14.1737 12.4325 14.0708C12.5356 13.9678 12.7025 13.9678 12.8054 14.0708L14.0763 15.3417L17.1705 12.2475C17.2735 12.1445 17.4404 12.1446 17.5434 12.2475C17.6463 12.3505 17.6463 12.5175 17.5434 12.6204L17.1587 13.0051C17.4615 13.5145 17.6206 14.0933 17.6206 14.6921C17.6206 16.516 16.1367 17.9999 14.3128 17.9999C12.4888 17.9999 11.0049 16.516 11.0049 14.6921C11.0049 13.1737 12.0334 11.891 13.4301 11.5037C13.2747 11.4215 13.1418 11.3319 13.0273 11.2335C12.7369 10.9841 12.5604 10.6736 12.4872 10.2757C11.9364 10.5969 11.325 10.7672 10.6948 10.7672C9.87426 10.7672 9.08567 10.4786 8.42136 9.94391C8.45051 10.1281 8.46559 10.3167 8.46559 10.5089V10.6407C8.5218 10.6262 8.58069 10.6184 8.64137 10.6184C9.02907 10.6184 9.34449 10.9339 9.34449 11.3216V12.0081C9.34449 12.4559 9.16245 12.9833 8.33245 13.0587C8.18279 13.6327 7.90974 14.1611 7.52706 14.6097C7.95611 14.6066 8.46035 14.7032 8.83916 15.0729C9.40957 15.6297 9.49415 16.5262 9.09777 17.8138C9.06286 17.9272 8.93295 18.031 8.76814 17.9883ZM1.08277 11.1458C0.985845 11.1458 0.90699 11.2247 0.90699 11.3216V12.0081C0.90699 12.2728 0.977126 12.45 1.28864 12.514C1.26868 12.3478 1.25855 12.1789 1.25855 12.0081V11.3216C1.25855 11.2247 1.1797 11.1458 1.08277 11.1458ZM8.46555 11.3216V12.0081C8.46555 12.1789 8.45543 12.3478 8.43546 12.514C8.74701 12.45 8.81711 12.2728 8.81711 12.0081V11.3216C8.81711 11.2247 8.73826 11.1458 8.64133 11.1458C8.54441 11.1458 8.46555 11.2247 8.46555 11.3216ZM14.562 5.13828V6.36551C14.911 6.2992 14.911 6.09185 14.911 5.93312V5.16795C14.911 5.07102 14.8322 4.99217 14.7353 4.99217C14.6484 4.99217 14.5761 5.05541 14.562 5.13828ZM6.65438 4.99217C6.55746 4.99217 6.4786 5.07102 6.4786 5.16795V5.93312C6.4786 6.09185 6.4786 6.29924 6.82763 6.36551V5.13817C6.81346 5.05538 6.74115 4.99217 6.65438 4.99217ZM4.86205 14.6274C4.32016 14.6274 3.86587 14.3869 3.67645 13.9997C3.61246 13.8689 3.6666 13.711 3.79742 13.647C3.92813 13.583 4.08612 13.6371 4.15014 13.7679C4.24882 13.9697 4.52828 14.1 4.86205 14.1C5.19582 14.1 5.47528 13.9696 5.57396 13.7679C5.63795 13.6371 5.79583 13.583 5.92668 13.647C6.0575 13.711 6.11164 13.8689 6.04766 13.9997C5.85824 14.3869 5.40395 14.6274 4.86205 14.6274ZM6.07494 12.6507C5.92932 12.6507 5.81127 12.5326 5.81127 12.387V11.6391C5.81127 11.4935 5.92932 11.3755 6.07494 11.3755C6.22055 11.3755 6.33861 11.4935 6.33861 11.6391V12.387C6.33861 12.5326 6.22055 12.6507 6.07494 12.6507ZM3.64917 12.6507C3.50355 12.6507 3.3855 12.5326 3.3855 12.387V11.6391C3.3855 11.4935 3.50355 11.3755 3.64917 11.3755C3.79478 11.3755 3.91284 11.4935 3.91284 11.6391V12.387C3.91284 12.5326 3.79478 12.6507 3.64917 12.6507ZM6.85878 10.7518C6.58182 10.4916 6.08352 10.4717 5.82804 10.7166C5.72288 10.8174 5.556 10.8138 5.45524 10.7087C5.35448 10.6035 5.358 10.4367 5.46315 10.3359C5.92236 9.89581 6.74501 9.91223 7.22373 10.3711C7.32885 10.4718 7.33332 10.6396 7.23164 10.7438C7.13194 10.846 6.96477 10.8513 6.85878 10.7518ZM2.4925 10.7438C2.39082 10.6396 2.39525 10.4718 2.50041 10.3711C2.97909 9.91223 3.80181 9.89578 4.26099 10.3359C4.3661 10.4367 4.36966 10.6036 4.2689 10.7087C4.16811 10.8138 4.00125 10.8174 3.8961 10.7166C3.64062 10.4717 3.14232 10.4916 2.86536 10.7518C2.75933 10.8513 2.59216 10.846 2.4925 10.7438ZM10.6948 9.08272C10.0963 9.08272 9.53535 8.82295 9.11531 8.35126C9.01849 8.24249 9.02816 8.07585 9.13689 7.979C9.24567 7.88214 9.41231 7.89184 9.50916 8.00055C9.82775 8.35833 10.2488 8.55535 10.6948 8.55535C11.1408 8.55535 11.5619 8.35833 11.8804 8.00055C11.9774 7.89181 12.144 7.88218 12.2527 7.979C12.3615 8.07582 12.3711 8.24249 12.2743 8.35126C11.8543 8.82292 11.2933 9.08272 10.6948 9.08272ZM11.978 6.41022C11.8323 6.41022 11.7143 6.29217 11.7143 6.14655V5.39868C11.7143 5.25306 11.8323 5.13501 11.978 5.13501C12.1237 5.13501 12.2417 5.25306 12.2417 5.39868V6.14655C12.2417 6.29217 12.1236 6.41022 11.978 6.41022ZM9.4116 6.41022C9.26595 6.41022 9.14793 6.29217 9.14793 6.14655V5.39868C9.14793 5.25306 9.26595 5.13501 9.4116 5.13501C9.55726 5.13501 9.67527 5.25306 9.67527 5.39868V6.14655C9.67527 6.29217 9.55722 6.41022 9.4116 6.41022ZM8.10872 4.51556C8.00258 4.41585 7.99738 4.24897 8.09705 4.14283C8.34993 3.87361 8.68746 3.72535 9.04742 3.72535C9.40738 3.72535 9.74488 3.87364 9.99776 4.14283C10.0975 4.24897 10.0923 4.41585 9.98609 4.51556C9.87992 4.61526 9.71307 4.61002 9.61337 4.50388C9.46125 4.34192 9.26022 4.25269 9.04739 4.25269C8.83455 4.25269 8.63356 4.34192 8.48137 4.50388C8.38188 4.60985 8.21468 4.61512 8.10872 4.51556ZM12.9082 4.50388C12.756 4.34196 12.555 4.25269 12.3422 4.25269C12.1293 4.25269 11.9284 4.34192 11.7762 4.50388C11.6765 4.61002 11.5097 4.61529 11.4035 4.51556C11.2973 4.41585 11.2921 4.24897 11.3918 4.14283C11.6447 3.87361 11.9822 3.72535 12.3421 3.72535C12.7021 3.72535 13.0396 3.87361 13.2925 4.14283C13.3922 4.24897 13.387 4.41582 13.2808 4.51556C13.1749 4.61512 13.0077 4.60985 12.9082 4.50388Z" fill="#656565"/>
</svg>
