<svg width="30" height="30" viewBox="0 0 30 30" fill="none" xmlns="http://www.w3.org/2000/svg">
<path d="M15 0C6.7285 0 0 6.7285 0 15C0 23.2715 6.7285 30 15 30C23.2715 30 30 23.2703 30 15C30 6.72967 23.2715 0 15 0ZM15 27.6762C8.01123 27.6762 2.32377 21.9899 2.32377 15C2.32377 8.01006 8.01123 2.32377 15 2.32377C21.9888 2.32377 27.6762 8.01006 27.6762 15C27.6762 21.9899 21.9899 27.6762 15 27.6762Z" fill="#C4C4C4"/>
<path d="M20.8096 13.7335H16.1621V9.08599C16.1621 8.44462 15.6427 7.92407 15.0002 7.92407C14.3576 7.92407 13.8383 8.44462 13.8383 9.08599V13.7335H9.19072C8.54818 13.7335 8.02881 14.2541 8.02881 14.8954C8.02881 15.5368 8.54818 16.0574 9.19072 16.0574H13.8383V20.7049C13.8383 21.3463 14.3576 21.8668 15.0002 21.8668C15.6427 21.8668 16.1621 21.3463 16.1621 20.7049V16.0574H20.8096C21.4522 16.0574 21.9715 15.5368 21.9715 14.8954C21.9715 14.2541 21.4522 13.7335 20.8096 13.7335Z" fill="#E02828"/>
</svg>
