<svg width="16" height="18" viewBox="0 0 16 18" fill="none" xmlns="http://www.w3.org/2000/svg">
<g opacity="0.8">
<path d="M3.38007 7.32515V9.64327C3.37973 10.0276 3.51192 10.3964 3.74747 10.6682C3.98302 10.94 4.3026 11.0925 4.63572 11.0921C4.90831 11.091 5.17304 10.9866 5.38911 10.7948V16.0181C5.38755 16.643 5.73445 17.1983 6.24879 17.394C6.76314 17.5898 7.32827 17.3818 7.64928 16.8784C7.68498 16.9369 7.72425 16.9924 7.76681 17.0445C8.12621 17.4583 8.66627 17.5817 9.13524 17.3571C9.6042 17.1324 9.90975 16.604 9.90945 16.0181V10.7951C10.2879 11.1295 10.7982 11.1863 11.2251 10.9416C11.6519 10.6969 11.9209 10.1932 11.9185 9.64327V7.32515C11.9171 5.88551 10.906 4.71885 9.65832 4.71726H9.06666C9.81333 4.02363 10.0996 2.86199 9.78088 1.81885C9.46218 0.775713 8.60786 0.0780029 7.64928 0.0780029C6.6907 0.0780029 5.83638 0.775713 5.51768 1.81885C5.19898 2.86199 5.48523 4.02363 6.2319 4.71726H5.64024C4.39255 4.71885 3.38145 5.88551 3.38007 7.32515ZM5.89137 2.6889C5.89137 1.56867 6.67841 0.660538 7.64928 0.660538C8.62015 0.660538 9.40719 1.56867 9.40719 2.6889C9.40719 3.80913 8.62015 4.71726 7.64928 4.71726C6.67887 4.71598 5.89248 3.8086 5.89137 2.6889ZM9.65832 5.29679C10.6287 5.29806 11.4151 6.20544 11.4162 7.32515V9.64327C11.4162 10.1234 11.0789 10.5126 10.6628 10.5126C10.2468 10.5126 9.90945 10.1234 9.90945 9.64327V7.32515C9.90945 7.16511 9.79702 7.03538 9.65832 7.03538C9.51963 7.03538 9.40719 7.16511 9.40719 7.32515V16.0181C9.40719 16.4982 9.06989 16.8874 8.6538 16.8874C8.23771 16.8874 7.90041 16.4982 7.90041 16.0181V12.2512C7.90041 12.0911 7.78797 11.9614 7.64928 11.9614C7.51058 11.9614 7.39815 12.0911 7.39815 12.2512V16.0181C7.39815 16.3287 7.25455 16.6157 7.02145 16.7709C6.78835 16.9262 6.50116 16.9262 6.26806 16.7709C6.03496 16.6157 5.89137 16.3287 5.89137 16.0181V7.32515C5.89137 7.16511 5.77893 7.03538 5.64024 7.03538C5.50154 7.03538 5.38911 7.16511 5.38911 7.32515V9.64327C5.38911 10.1234 5.0518 10.5126 4.63572 10.5126C4.21963 10.5126 3.88233 10.1234 3.88233 9.64327V7.32515C3.88343 6.20544 4.66983 5.29806 5.64024 5.29679H9.65832Z" fill="#656565"/>
<path d="M0.617493 17.4667H2.3754C2.65279 17.4667 2.87766 17.2073 2.87766 16.8872V0.660342C2.87766 0.340275 2.65279 0.0808105 2.3754 0.0808105H0.617493C0.340103 0.0808105 0.115234 0.340275 0.115234 0.660342V16.8872C0.115234 17.2073 0.340103 17.4667 0.617493 17.4667ZM2.3754 0.660342V16.8872H0.617493V16.0179H1.37088C1.50958 16.0179 1.62201 15.8882 1.62201 15.7281C1.62201 15.5681 1.50958 15.4384 1.37088 15.4384H0.617493V14.8589H1.11975C1.25845 14.8589 1.37088 14.7291 1.37088 14.5691C1.37088 14.4091 1.25845 14.2793 1.11975 14.2793H0.617493V13.6998H1.37088C1.50958 13.6998 1.62201 13.5701 1.62201 13.41C1.62201 13.25 1.50958 13.1203 1.37088 13.1203H0.617493V12.5407H1.11975C1.25845 12.5407 1.37088 12.411 1.37088 12.251C1.37088 12.0909 1.25845 11.9612 1.11975 11.9612H0.617493V11.3817H1.37088C1.50958 11.3817 1.62201 11.2519 1.62201 11.0919C1.62201 10.9319 1.50958 10.8021 1.37088 10.8021H0.617493V10.2226H1.11975C1.25845 10.2226 1.37088 10.0929 1.37088 9.93284C1.37088 9.77281 1.25845 9.64307 1.11975 9.64307H0.617493V9.06354H1.37088C1.50958 9.06354 1.62201 8.93381 1.62201 8.77378C1.62201 8.61374 1.50958 8.48401 1.37088 8.48401H0.617493V7.90448H1.11975C1.25845 7.90448 1.37088 7.77475 1.37088 7.61471C1.37088 7.45468 1.25845 7.32495 1.11975 7.32495H0.617493V6.74542H1.37088C1.50958 6.74542 1.62201 6.61569 1.62201 6.45565C1.62201 6.29562 1.50958 6.16589 1.37088 6.16589H0.617493V5.58636H1.11975C1.25845 5.58636 1.37088 5.45662 1.37088 5.29659C1.37088 5.13656 1.25845 5.00682 1.11975 5.00682H0.617493V4.42729H1.37088C1.50958 4.42729 1.62201 4.29756 1.62201 4.13753C1.62201 3.97749 1.50958 3.84776 1.37088 3.84776H0.617493V3.26823H1.11975C1.25845 3.26823 1.37088 3.1385 1.37088 2.97847C1.37088 2.81843 1.25845 2.6887 1.11975 2.6887H0.617493V2.10917H1.37088C1.50958 2.10917 1.62201 1.97944 1.62201 1.8194C1.62201 1.65937 1.50958 1.52964 1.37088 1.52964H0.617493V0.660342H2.3754Z" fill="#656565"/>
<path d="M14.6305 2.9786C14.8448 2.98309 15.0417 2.84321 15.1348 2.62045C15.2192 2.41534 15.192 2.17227 15.0652 1.99861L13.8598 0.312754C13.7482 0.171976 13.5905 0.0917969 13.4251 0.0917969C13.2597 0.0917969 13.102 0.171976 12.9904 0.312754L11.785 1.99861C11.6582 2.17227 11.631 2.41534 11.7154 2.62045C11.8085 2.84321 12.0054 2.98309 12.2197 2.9786H12.4206V14.5692H12.2197C12.0054 14.5647 11.8085 14.7046 11.7154 14.9274C11.631 15.1325 11.6582 15.3755 11.785 15.5492L12.9904 17.2351C13.0988 17.3821 13.2578 17.4668 13.4251 17.4668C13.5924 17.4668 13.7514 17.3821 13.8598 17.2351L15.0652 15.5492C15.192 15.3755 15.2192 15.1325 15.1348 14.9274C15.0417 14.7046 14.8448 14.5647 14.6305 14.5692H14.4296V2.9786H14.6305ZM14.1785 15.1487H14.6305C14.6692 15.1487 14.6808 15.1725 14.6777 15.1803L13.4723 16.8662C13.46 16.8811 13.443 16.8896 13.4251 16.8896C13.4072 16.8896 13.3902 16.8811 13.3779 16.8662L12.1694 15.1777C12.1694 15.1731 12.1815 15.1487 12.2197 15.1487H12.6717C12.8104 15.1487 12.9228 15.019 12.9228 14.859V2.68883C12.9228 2.5288 12.8104 2.39907 12.6717 2.39907H12.2197C12.181 2.39907 12.1694 2.3753 12.1725 2.36748L13.3779 0.681625C13.3902 0.666669 13.4072 0.658197 13.4251 0.658197C13.443 0.658197 13.46 0.666669 13.4723 0.681625L14.6808 2.37009C14.6808 2.37473 14.6687 2.39907 14.6305 2.39907H14.1785C14.0398 2.39907 13.9274 2.5288 13.9274 2.68883V14.859C13.9274 15.019 14.0398 15.1487 14.1785 15.1487Z" fill="#656565"/>
</g>
</svg>
