<svg width="35" height="35" viewBox="0 0 35 35" fill="none" xmlns="http://www.w3.org/2000/svg">
<g opacity="0.8">
<path d="M7.58203 14.5861V19.2517C7.58126 20.0253 7.88823 20.7675 8.43526 21.3145C8.98228 21.8615 9.72443 22.1685 10.498 22.1677C11.1311 22.1656 11.7459 21.9553 12.2477 21.5694V32.0822C12.244 33.34 13.0496 34.4574 14.2441 34.8515C15.4386 35.2455 16.751 34.8268 17.4965 33.8137C17.5794 33.9315 17.6706 34.0431 17.7694 34.1479C18.6041 34.9809 19.8583 35.2292 20.9473 34.7771C22.0364 34.3249 22.746 33.2614 22.7453 32.0822V21.57C23.6241 22.243 24.8093 22.3574 25.8006 21.8649C26.7919 21.3723 27.4166 20.3587 27.4109 19.2517V14.5861C27.4077 11.6886 25.0596 9.3405 22.1621 9.33729H20.7881C22.5221 7.94126 23.1868 5.60325 22.4467 3.50376C21.7066 1.40426 19.7226 0 17.4965 0C15.2703 0 13.2864 1.40426 12.5462 3.50376C11.8061 5.60325 12.4709 7.94126 14.2049 9.33729H12.8309C9.93334 9.3405 7.58525 11.6886 7.58203 14.5861ZM13.4141 5.25487C13.4141 3.00021 15.2418 1.17245 17.4965 1.17245C19.7511 1.17245 21.5789 3.00021 21.5789 5.25487C21.5789 7.50953 19.7511 9.33729 17.4965 9.33729C15.2429 9.33472 13.4166 7.50846 13.4141 5.25487ZM22.1621 10.5037C24.4157 10.5063 26.2419 12.3325 26.2445 14.5861V19.2517C26.2445 20.218 25.4612 21.0013 24.4949 21.0013C23.5286 21.0013 22.7453 20.218 22.7453 19.2517V14.5861C22.7453 14.264 22.4842 14.0029 22.1621 14.0029C21.84 14.0029 21.5789 14.264 21.5789 14.5861V32.0822C21.5789 33.0485 20.7956 33.8318 19.8293 33.8318C18.863 33.8318 18.0797 33.0485 18.0797 32.0822V24.5006C18.0797 24.1785 17.8186 23.9174 17.4965 23.9174C17.1744 23.9174 16.9133 24.1785 16.9133 24.5006V32.0822C16.9133 32.7073 16.5798 33.2849 16.0385 33.5974C15.4971 33.9099 14.8302 33.9099 14.2889 33.5974C13.7475 33.2849 13.4141 32.7073 13.4141 32.0822V14.5861C13.4141 14.264 13.1529 14.0029 12.8309 14.0029C12.5088 14.0029 12.2477 14.264 12.2477 14.5861V19.2517C12.2477 20.218 11.4643 21.0013 10.498 21.0013C9.53176 21.0013 8.74844 20.218 8.74844 19.2517V14.5861C8.75101 12.3325 10.5773 10.5063 12.8309 10.5037H22.1621Z" fill="#656565"/>
<path d="M1.16641 34.9986H5.24882C5.89301 34.9986 6.41523 34.4764 6.41523 33.8322V1.17287C6.41523 0.528687 5.89301 0.00646973 5.24882 0.00646973H1.16641C0.522217 0.00646973 0 0.528687 0 1.17287V33.8322C0 34.4764 0.522217 34.9986 1.16641 34.9986ZM5.24882 1.17287V33.8322H1.16641V32.0826H2.91601C3.23811 32.0826 3.49922 31.8215 3.49922 31.4994C3.49922 31.1773 3.23811 30.9162 2.91601 30.9162H1.16641V29.7498H2.33281C2.6549 29.7498 2.91601 29.4887 2.91601 29.1666C2.91601 28.8445 2.6549 28.5834 2.33281 28.5834H1.16641V27.417H2.91601C3.23811 27.417 3.49922 27.1559 3.49922 26.8338C3.49922 26.5117 3.23811 26.2506 2.91601 26.2506H1.16641V25.0842H2.33281C2.6549 25.0842 2.91601 24.8231 2.91601 24.501C2.91601 24.1789 2.6549 23.9178 2.33281 23.9178H1.16641V22.7514H2.91601C3.23811 22.7514 3.49922 22.4903 3.49922 22.1682C3.49922 21.8461 3.23811 21.585 2.91601 21.585H1.16641V20.4186H2.33281C2.6549 20.4186 2.91601 20.1574 2.91601 19.8354C2.91601 19.5133 2.6549 19.2522 2.33281 19.2522H1.16641V18.0857H2.91601C3.23811 18.0857 3.49922 17.8246 3.49922 17.5025C3.49922 17.1805 3.23811 16.9193 2.91601 16.9193H1.16641V15.7529H2.33281C2.6549 15.7529 2.91601 15.4918 2.91601 15.1697C2.91601 14.8476 2.6549 14.5865 2.33281 14.5865H1.16641V13.4201H2.91601C3.23811 13.4201 3.49922 13.159 3.49922 12.8369C3.49922 12.5148 3.23811 12.2537 2.91601 12.2537H1.16641V11.0873H2.33281C2.6549 11.0873 2.91601 10.8262 2.91601 10.5041C2.91601 10.182 2.6549 9.92091 2.33281 9.92091H1.16641V8.75451H2.91601C3.23811 8.75451 3.49922 8.4934 3.49922 8.1713C3.49922 7.84921 3.23811 7.5881 2.91601 7.5881H1.16641V6.4217H2.33281C2.6549 6.4217 2.91601 6.16059 2.91601 5.83849C2.91601 5.5164 2.6549 5.25529 2.33281 5.25529H1.16641V4.08889H2.91601C3.23811 4.08889 3.49922 3.82778 3.49922 3.50568C3.49922 3.18359 3.23811 2.92248 2.91601 2.92248H1.16641V1.17287H5.24882Z" fill="#656565"/>
<path d="M33.7091 5.83813C34.2067 5.84717 34.664 5.56565 34.8801 5.11729C35.0761 4.70448 35.0129 4.21526 34.7186 3.86574L31.9192 0.472668C31.66 0.189329 31.2937 0.0279541 30.9097 0.0279541C30.5257 0.0279541 30.1594 0.189329 29.9002 0.472668L27.1008 3.86574C26.8064 4.21526 26.7433 4.70448 26.9392 5.11729C27.1553 5.56565 27.6127 5.84717 28.1103 5.83813H28.5769V29.1662H28.1103C27.6127 29.1572 27.1553 29.4387 26.9392 29.8871C26.7433 30.2999 26.8064 30.7891 27.1008 31.1386L29.9002 34.5317C30.152 34.8276 30.5211 34.9982 30.9097 34.9982C31.2983 34.9982 31.6673 34.8276 31.9192 34.5317L34.7186 31.1386C35.0129 30.7891 35.0761 30.2999 34.8801 29.8871C34.664 29.4387 34.2067 29.1572 33.7091 29.1662H33.2425V5.83813H33.7091ZM32.6593 30.3326H33.7091C33.7989 30.3326 33.8257 30.3805 33.8187 30.3962L31.0193 33.7893C30.9908 33.8194 30.9512 33.8364 30.9097 33.8364C30.8682 33.8364 30.8286 33.8194 30.8 33.7893L27.9937 30.391C27.9937 30.3816 28.0217 30.3326 28.1103 30.3326H29.1601C29.4822 30.3326 29.7433 30.0715 29.7433 29.7494V5.25493C29.7433 4.93284 29.4822 4.67173 29.1601 4.67173H28.1103C28.0205 4.67173 27.9937 4.6239 28.0007 4.60816L30.8 1.21508C30.8286 1.18498 30.8682 1.16793 30.9097 1.16793C30.9512 1.16793 30.9908 1.18498 31.0193 1.21508L33.8257 4.61341C33.8257 4.62274 33.7977 4.67173 33.7091 4.67173H32.6593C32.3372 4.67173 32.0761 4.93284 32.0761 5.25493V29.7494C32.0761 30.0715 32.3372 30.3326 32.6593 30.3326Z" fill="#656565"/>
</g>
</svg>
