<svg width="37" height="37" viewBox="0 0 37 37" fill="none" xmlns="http://www.w3.org/2000/svg">
<path d="M18.0234 36.9759C17.7337 36.9007 17.5768 36.5845 17.6649 36.2984C18.3487 34.0772 18.266 32.5924 17.4121 31.759C16.3879 30.7592 14.4892 31.2016 14.0843 31.3111C12.8575 32.1951 11.4193 32.6862 9.99418 32.6862C8.56867 32.6862 7.13023 32.1949 5.90324 31.3105C5.49768 31.1987 3.60968 30.7503 2.57621 31.759C1.72232 32.5924 1.63965 34.0772 2.32343 36.2984C2.41152 36.5844 2.25102 36.8878 1.96492 36.9759C1.67897 37.064 1.37552 36.9034 1.28743 36.6174C0.47264 33.9706 0.64651 32.1277 1.81902 30.9833C2.59753 30.2235 3.63244 30.0264 4.51603 30.0312C3.72949 29.1091 3.16821 28.0228 2.86058 26.843C1.15446 26.6881 0.780273 25.6039 0.780273 24.6834V23.2723C0.780273 22.4753 1.42864 21.827 2.22558 21.827C2.35031 21.827 2.47135 21.8428 2.58691 21.8727V21.6018C2.58691 20.7277 2.73787 19.8717 3.03553 19.0577C3.13836 18.7765 3.44968 18.6322 3.73072 18.7348C4.01184 18.8376 4.15644 19.1488 4.0536 19.43C3.79966 20.1244 3.67089 20.8551 3.67089 21.6018V24.6834C3.67089 28.8221 6.94046 31.6023 9.99411 31.6023C13.0478 31.6023 16.3173 28.8221 16.3173 24.6834V21.6018C16.3173 18.1152 13.4808 15.2786 9.99411 15.2786C8.10646 15.2786 6.33184 16.1127 5.12523 17.5671C4.93409 17.7975 4.59234 17.8292 4.36203 17.6382C4.13165 17.447 4.09985 17.1054 4.291 16.875C5.70429 15.1716 7.78293 14.1946 9.99411 14.1946C11.5771 14.1946 13.0457 14.6938 14.2508 15.5429C14.1471 15.0941 14.0798 14.6388 14.0508 14.1822C12.5639 13.9996 12.233 13.0259 12.233 12.1959V10.623C12.233 9.82606 12.8814 9.1777 13.6783 9.1777C13.8012 9.1777 13.9205 9.19309 14.0345 9.22207V7.94919C14.0345 3.56601 17.6005 0 21.9837 0C24.3566 0 26.5875 1.04843 28.1041 2.87645C28.2952 3.10683 28.2634 3.44857 28.0331 3.63964C27.8027 3.83079 27.461 3.79899 27.2698 3.56861C25.9599 1.98961 24.0332 1.08398 21.9838 1.08398C18.1983 1.08398 15.1186 4.16371 15.1186 7.94919V13.6705C15.1186 17.6009 18.3267 21.0487 21.9838 21.0487C25.6409 21.0487 28.849 17.601 28.849 13.6705V7.94919C28.849 7.13851 28.7092 6.34519 28.4335 5.59117C28.3306 5.31006 28.4752 4.99881 28.7564 4.89598C29.0379 4.79322 29.3487 4.93782 29.4516 5.21886C29.771 6.09247 29.933 7.01111 29.933 7.94919V9.22207C30.0469 9.19309 30.1663 9.1777 30.2892 9.1777C31.0861 9.1777 31.7345 9.82606 31.7345 10.623V12.1959C31.7345 13.0258 31.4037 13.9996 29.9167 14.1822C29.7932 16.1278 28.9723 18.053 27.6217 19.5321C27.3237 19.8585 27.0078 20.1565 26.6767 20.4245C26.7464 21.9182 27.4744 22.8304 30.6574 23.5123C31.6843 23.6999 32.6512 24.1225 33.5011 24.7609C33.7404 24.9407 33.7886 25.2804 33.6088 25.5198C33.4291 25.7591 33.0894 25.8074 32.85 25.6276C32.182 25.1257 31.0411 24.4849 29.4207 24.4849C26.2692 24.4849 23.7052 27.0489 23.7052 30.2004C23.7052 33.3519 26.2691 35.9159 29.4206 35.9159C32.5721 35.9159 35.1361 33.352 35.1361 30.2004C35.1361 29.2597 34.909 28.3478 34.4747 27.5286L29.3179 32.6855C29.1066 32.8968 28.7628 32.8968 28.5514 32.6855L25.5558 29.6898C25.3441 29.4781 25.3441 29.1349 25.5558 28.9233C25.7676 28.7117 26.1107 28.7117 26.3223 28.9233L28.9346 31.5357L35.2949 25.1755C35.5067 24.9638 35.8498 24.9638 36.0614 25.1755C36.273 25.3872 36.273 25.7304 36.0614 25.942L35.2706 26.7327C35.8931 27.7799 36.2201 28.9697 36.2201 30.2003C36.2201 33.9495 33.1699 36.9998 29.4207 36.9998C25.6715 36.9998 22.6212 33.9496 22.6212 30.2003C22.6212 27.0793 24.7353 24.4425 27.6064 23.6466C27.287 23.4775 27.0138 23.2934 26.7783 23.0912C26.1814 22.5784 25.8187 21.9401 25.6681 21.1222C24.5361 21.7826 23.2793 22.1326 21.9839 22.1326C20.2971 22.1326 18.6761 21.5393 17.3106 20.4403C17.3705 20.8188 17.4015 21.2066 17.4015 21.6017V21.8726C17.5171 21.8427 17.6381 21.8268 17.7628 21.8268C18.5598 21.8268 19.2082 22.4752 19.2082 23.2721V24.6832C19.2082 25.6038 18.834 26.688 17.1279 26.8428C16.8202 28.0227 16.2589 29.109 15.4723 30.031C16.3543 30.0247 17.3908 30.2232 18.1694 30.9832C19.3419 32.1277 19.5158 33.9706 18.701 36.6172C18.6292 36.8503 18.3622 37.0637 18.0234 36.9759ZM2.22572 22.9109C2.02649 22.9109 1.8644 23.073 1.8644 23.2722V24.6833C1.8644 25.2274 2.00857 25.5917 2.64891 25.7231C2.60786 25.3815 2.58705 25.0344 2.58705 24.6833V23.2722C2.58705 23.073 2.42496 22.9109 2.22572 22.9109ZM17.4014 23.2722V24.6833C17.4014 25.0344 17.3806 25.3816 17.3396 25.7231C17.98 25.5917 18.1241 25.2274 18.1241 24.6833V23.2722C18.1241 23.073 17.962 22.9109 17.7628 22.9109C17.5635 22.9109 17.4014 23.073 17.4014 23.2722ZM29.933 10.562V13.0847C30.6505 12.9484 30.6505 12.5221 30.6505 12.1959V10.623C30.6505 10.4238 30.4884 10.2617 30.2892 10.2617C30.1107 10.2617 29.962 10.3917 29.933 10.562ZM13.6785 10.2617C13.4792 10.2617 13.3172 10.4238 13.3172 10.623V12.1959C13.3172 12.5221 13.3172 12.9484 14.0346 13.0847V10.5618C14.0055 10.3916 13.8568 10.2617 13.6785 10.2617ZM9.99425 30.0674C8.88035 30.0674 7.94654 29.573 7.55717 28.7771C7.42565 28.5082 7.53694 28.1836 7.80584 28.0521C8.07452 27.9205 8.39928 28.0319 8.53088 28.3008C8.73373 28.7154 9.30816 28.9833 9.99425 28.9833C10.6803 28.9833 11.2548 28.7154 11.4576 28.3008C11.5891 28.0319 11.9137 27.9206 12.1827 28.0521C12.4516 28.1836 12.5628 28.5082 12.4313 28.7771C12.042 29.573 11.1081 30.0674 9.99425 30.0674ZM12.4874 26.0042C12.1881 26.0042 11.9454 25.7615 11.9454 25.4622V23.9249C11.9454 23.6256 12.1881 23.3829 12.4874 23.3829C12.7867 23.3829 13.0294 23.6256 13.0294 23.9249V25.4622C13.0294 25.7615 12.7867 26.0042 12.4874 26.0042ZM7.5011 26.0042C7.20177 26.0042 6.95911 25.7615 6.95911 25.4622V23.9249C6.95911 23.6256 7.20177 23.3829 7.5011 23.3829C7.80042 23.3829 8.04309 23.6256 8.04309 23.9249V25.4622C8.04309 25.7615 7.80042 26.0042 7.5011 26.0042ZM14.0986 22.1008C13.5293 21.5661 12.505 21.5251 11.9799 22.0286C11.7637 22.2357 11.4207 22.2284 11.2136 22.0123C11.0065 21.7962 11.0137 21.4531 11.2298 21.246C12.1738 20.3414 13.8648 20.3751 14.8488 21.3183C15.0649 21.5255 15.0741 21.8703 14.8651 22.0846C14.6601 22.2947 14.3165 22.3054 14.0986 22.1008ZM5.12349 22.0846C4.9145 21.8703 4.92361 21.5254 5.13975 21.3183C6.12372 20.3751 7.81487 20.3413 8.75873 21.246C8.9748 21.4531 8.9821 21.7962 8.77499 22.0123C8.5678 22.2284 8.22483 22.2357 8.00869 22.0286C7.48353 21.5252 6.45925 21.5661 5.88994 22.1008C5.67199 22.3054 5.32837 22.2947 5.12349 22.0846ZM21.9838 18.67C20.7535 18.67 19.6005 18.1361 18.7371 17.1665C18.538 16.9429 18.5579 16.6004 18.7814 16.4013C19.005 16.2022 19.3476 16.2221 19.5466 16.4456C20.2015 17.181 21.067 17.586 21.9838 17.586C22.9006 17.586 23.7661 17.181 24.4209 16.4456C24.6202 16.2221 24.9628 16.2023 25.1862 16.4013C25.4097 16.6003 25.4296 16.9429 25.2305 17.1665C24.3671 18.136 23.214 18.67 21.9838 18.67ZM24.6215 13.1766C24.3221 13.1766 24.0795 12.9339 24.0795 12.6346V11.0973C24.0795 10.798 24.3221 10.5553 24.6215 10.5553C24.9209 10.5553 25.1635 10.798 25.1635 11.0973V12.6346C25.1635 12.9339 24.9208 13.1766 24.6215 13.1766ZM19.3461 13.1766C19.0467 13.1766 18.8041 12.9339 18.8041 12.6346V11.0973C18.8041 10.798 19.0467 10.5553 19.3461 10.5553C19.6455 10.5553 19.8881 10.798 19.8881 11.0973V12.6346C19.8881 12.9339 19.6454 13.1766 19.3461 13.1766ZM16.668 9.28198C16.4498 9.07703 16.4391 8.73399 16.644 8.51582C17.1638 7.96241 17.8576 7.65767 18.5975 7.65767C19.3374 7.65767 20.0312 7.96248 20.551 8.51582C20.7559 8.73399 20.7452 9.07703 20.527 9.28198C20.3088 9.48692 19.9658 9.47615 19.7608 9.25799C19.4481 8.92506 19.0349 8.74165 18.5974 8.74165C18.1599 8.74165 17.7468 8.92506 17.434 9.25799C17.2295 9.47579 16.8858 9.48663 16.668 9.28198ZM26.5335 9.25799C26.2206 8.92513 25.8076 8.74165 25.3701 8.74165C24.9326 8.74165 24.5194 8.92506 24.2067 9.25799C24.0017 9.47615 23.6588 9.48699 23.4405 9.28198C23.2223 9.07703 23.2116 8.73399 23.4165 8.51582C23.9363 7.96241 24.6301 7.65767 25.37 7.65767C26.1099 7.65767 26.8037 7.96241 27.3235 8.51582C27.5284 8.73399 27.5177 9.07696 27.2995 9.28198C27.0818 9.48663 26.7381 9.47579 26.5335 9.25799Z" fill="#656565"/>
</svg>
