<svg width="91" height="91" viewBox="0 0 91 91" fill="none" xmlns="http://www.w3.org/2000/svg">
<g clip-path="url(#clip0)">
<path d="M86.8367 61.8582C81.016 61.8609 54.2021 61.8582 53.7938 61.8541C53.2 61.8481 52.8674 61.5713 52.8732 61.0945C52.8792 60.6117 53.2023 60.3448 53.7996 60.3441C57.8121 60.3391 74.6493 60.3315 79.0552 60.3238C81.1921 60.3201 82.8641 59.0725 83.2921 57.0506C83.6395 55.4102 83.1709 53.9878 81.8574 52.8756C81.0398 52.1833 80.1097 51.8796 79.0463 51.8809C76.7139 51.8838 72.8037 51.8858 68.2399 51.8869C66.8462 52.9665 64.8099 53.7953 61.841 53.7953C58.9079 53.7953 56.8974 52.965 55.5219 51.8883C46.7933 51.8882 38.5084 51.8862 35.5748 51.8843C35.487 51.8843 35.3996 51.8818 35.3121 51.8842C34.88 51.8961 34.5694 51.7137 34.4547 51.2898C34.3435 50.8781 34.5878 50.6297 34.9174 50.4458C35.8467 49.9275 36.7779 49.4126 37.7074 48.895C40.6885 47.2347 43.6805 45.5939 46.6462 43.9069C48.8711 42.6414 50.4372 40.8322 50.9995 38.2695C51.2103 37.3079 51.5443 32.1146 49.3177 33.0559C48.3924 33.4471 47.4858 33.8837 46.5794 34.3177C42.4515 36.2942 24.6724 44.8242 22.4455 45.9367C20.3413 46.9879 18.4534 48.353 16.9138 50.1541C16.5077 50.6291 16.1316 51.1346 15.7858 51.6555C13.8977 54.4984 11.8398 56.9511 8.45176 58.0084C6.31665 58.6748 3.89931 58.3598 1.67332 58.3629C0.748995 58.3627 0 59.1118 0 60.0358V82.577C0 83.5009 0.749116 84.2501 1.67307 84.2501H4.98476C5.33008 84.2501 5.66605 84.3572 5.94864 84.5557C7.96473 85.9721 14.7318 90.0988 25.1489 90.0988C25.8603 90.1477 69.1299 90.2508 70.53 90.234C72.8409 90.2066 74.6794 88.3774 74.7118 86.0953C74.7451 83.7476 72.9666 81.8203 70.6107 81.7984C66.3517 81.7586 53.6624 81.7926 51.5773 81.7816C51.0064 81.7788 50.6941 81.5023 50.6914 81.0329C50.6887 80.558 51.0274 80.2657 51.6066 80.2652C56.3633 80.2627 75.709 80.2675 80.6252 80.2617C83.4726 80.2583 85.5156 77.5443 84.6671 74.8321C84.1445 73.1616 82.7353 71.8506 80.7868 71.8388C76.8479 71.8148 56.7888 71.8342 54.5277 71.8235C53.8486 71.8202 53.4594 71.322 53.6817 70.7801C53.8354 70.4058 54.1493 70.2891 54.5304 70.2904C55.4637 70.2936 83.5234 70.2925 86.8356 70.2901C89.14 70.2884 90.9934 68.4014 91 66.0538C91.0069 63.7594 89.1238 61.857 86.8367 61.8582Z" fill="black" fill-opacity="0.2"/>
<path d="M61.8409 50.7617C76.8537 50.7617 61.8409 25.0532 61.8409 25.0532C61.8409 25.0532 47.0871 50.7617 61.8409 50.7617Z" fill="black" fill-opacity="0.2"/>
<path d="M46.7086 26.4722C61.7214 26.4722 46.7086 0.763672 46.7086 0.763672C46.7086 0.763672 31.9548 26.4722 46.7086 26.4722Z" fill="black" fill-opacity="0.2"/>
</g>
<defs>
<clipPath id="clip0">
<rect width="91" height="91" fill="white"/>
</clipPath>
</defs>
</svg>
