<svg width="38" height="38" viewBox="0 0 38 38" fill="none" xmlns="http://www.w3.org/2000/svg">
<g opacity="0.8" clip-path="url(#clip0)">
<path d="M31.3087 4.39926C29.9643 3.37497 28.4121 2.46882 26.8073 1.77213C23.8858 0.504007 20.8211 -0.0890671 17.6986 0.0108017C11.849 0.196989 7.57827 2.77456 5.4686 4.38055H0.829346V38H37.1709V4.37853L31.3087 4.39926ZM36.048 36.8771H1.95231V5.50351H5.85206L6.0041 5.38537C7.94795 3.87492 12.0566 1.31389 17.7343 1.13324C20.6902 1.03951 23.5921 1.60077 26.3601 2.80226C27.9416 3.48877 29.4678 4.38856 30.7738 5.40461L30.9268 5.52357L36.048 5.50553V36.8771Z" fill="#656565"/>
<path d="M33.3711 34.1731H4.54984V7.74601H7.45719V6.62305H3.42688V35.296H34.4941V18.6971H33.3711V34.1731Z" fill="#656565"/>
<path d="M33.371 16.0112H34.494V17.3541H33.371V16.0112Z" fill="#656565"/>
<path d="M12.8153 14.1694C14.7796 13.5492 16.8164 13.2574 18.868 13.3016C20.657 13.3403 22.431 13.6356 24.141 14.1793L24.6086 14.328L28.5349 6.03642L28.0542 5.78712C25.8889 4.66386 22.3845 3.3437 17.9891 3.4399C14.8208 3.50848 11.6526 4.32015 8.82703 5.78719L8.34229 6.03881L12.3526 14.3154L12.8153 14.1694ZM11.4626 5.8679L12.3237 7.68275L13.3383 7.20138L12.5192 5.47493C13.211 5.25715 13.9142 5.07726 14.6247 4.93621L14.8568 6.86501L15.9718 6.73093L15.7333 4.74853C16.448 4.64836 17.1673 4.58734 17.887 4.56698V7.21515H19.01V4.56683C19.7219 4.58764 20.4066 4.64626 21.0611 4.73483L20.8209 6.731L21.9358 6.86524L22.1701 4.9178C22.9227 5.06386 23.6295 5.24592 24.2854 5.44985L23.4543 7.20145L24.4689 7.68283L25.3299 5.86797C25.3299 5.86797 26.4048 6.22784 27.0532 6.54152L24.0111 12.966C22.6172 12.5603 21.3684 12.3094 19.9235 12.2162L17.9925 8.79134L17.0125 9.33965L18.5995 12.1757C18.5535 12.1754 18.5075 12.1742 18.4615 12.1742C16.5941 12.1742 14.7415 12.4373 12.9426 12.9577L9.83261 6.53905C10.4519 6.23915 11.4626 5.8679 11.4626 5.8679Z" fill="#656565"/>
<path d="M29.4406 7.74601H33.371V14.6683H34.4939V6.62305H29.4406V7.74601Z" fill="#656565"/>
<path d="M7.53357 28.1346H8.65871V29.2597H7.53357V28.1346Z" fill="#656565"/>
<path d="M7.53357 31.8853H8.65871V33.0104H7.53357V31.8853Z" fill="#656565"/>
<path d="M9.40906 30.01H10.5342V31.1351H9.40906V30.01Z" fill="#656565"/>
<path d="M5.65814 30.01H6.78328V31.1351H5.65814V30.01Z" fill="#656565"/>
<path d="M29.9099 11.1865H31.035V12.3117H29.9099V11.1865Z" fill="#656565"/>
<path d="M29.9099 8.97986H31.035V10.105H29.9099V8.97986Z" fill="#656565"/>
</g>
<defs>
<clipPath id="clip0">
<rect width="38" height="38" fill="white"/>
</clipPath>
</defs>
</svg>
