<svg width="53" height="44" viewBox="0 0 53 44" fill="none" xmlns="http://www.w3.org/2000/svg">
<path d="M44.5377 4.99598C44.2465 4.99598 44.0097 4.7592 44.0097 4.46797V1.05602H30.0281C29.7368 1.05602 29.5024 0.819244 29.5024 0.52801C29.5024 0.239143 29.7368 0 30.0281 0H44.5377C44.8289 0 45.0657 0.239143 45.0657 0.52801V4.46797C45.0634 4.7592 44.8289 4.99598 44.5377 4.99598Z" fill="#656565"/>
<path d="M41.1445 13.0109H47.7459V9.9873H41.1445V13.0109Z" fill="#656565"/>
<path d="M41.5517 8.9339H47.3361V7.18886C47.3361 7.01364 47.1941 6.87158 47.0212 6.87158H41.869C41.6937 6.87158 41.5493 7.01364 41.5493 7.18886V8.9339H41.5517Z" fill="#656565"/>
<path d="M43.0059 5.81528H45.8851V4.04656C45.8851 3.98973 45.8353 3.94238 45.7785 3.94238H43.1124C43.0556 3.94238 43.0059 3.98973 43.0059 4.04656V5.81528Z" fill="#656565"/>
<path d="M40.2617 31.7915C40.2617 34.1688 42.1796 36.1032 44.5379 36.1032C46.8938 36.1032 48.8117 34.1688 48.8117 31.7915C48.8117 29.4096 46.8938 27.4751 44.5379 27.4751C42.1796 27.4751 40.2617 29.4096 40.2617 31.7915ZM42.3596 31.2635H44.0099V29.5919C44.0099 29.3006 44.2467 29.0639 44.5379 29.0639C44.8291 29.0639 45.0659 29.3006 45.0659 29.5919V31.2635H46.7162C47.0051 31.2635 47.2419 31.5003 47.2419 31.7915C47.2419 32.0804 47.0051 32.3172 46.7162 32.3172H45.0659V33.9888C45.0659 34.2777 44.8291 34.5144 44.5379 34.5144C44.2467 34.5144 44.0099 34.2777 44.0099 33.9888V32.3172H42.3596C42.0683 32.3172 41.8315 32.0804 41.8315 31.7915C41.8315 31.5003 42.0683 31.2635 42.3596 31.2635Z" fill="#656565"/>
<path d="M50.0618 20.5521C48.3499 19.3469 47.3341 17.3793 47.3365 15.2862L47.3388 14.0645H45.0658V26.4455C47.7579 26.7107 49.8652 29.005 49.8652 31.7895C49.8652 34.7468 47.4738 37.1572 44.5378 37.1572C41.5994 37.1572 39.2103 34.7468 39.2103 31.7895C39.2103 29.005 41.32 26.7107 44.0098 26.4455V14.0645H41.5568L41.5662 15.5514C41.5805 17.538 40.6215 19.4061 39.0043 20.5498C37.676 21.4898 36.8828 23.0241 36.8828 24.6483V40.1477C36.8828 41.019 37.5908 41.7294 38.4621 41.7294H50.6087C51.4801 41.7294 52.188 41.019 52.188 40.1477V24.6602C52.188 23.0288 51.3924 21.4921 50.0618 20.5521Z" fill="#656565"/>
<path d="M30.0329 3.40674C28.9603 4.89132 27.7835 6.82578 27.8025 7.61662C27.8285 8.8881 29.0077 9.75944 30.1584 9.72866C31.4394 9.68367 32.4599 8.6679 32.4338 7.45324C32.4149 6.66714 31.1647 4.81792 30.0329 3.40674Z" fill="#656565"/>
<path d="M3.98772 34.1009L4.04218 34.1269C6.30812 35.1309 8.81085 35.6352 11.2899 35.595L11.5811 35.3037C10.035 33.5966 9.76269 31.0844 10.8968 29.0931C10.2315 28.3212 9.8645 27.348 9.8645 26.3181C9.8645 25.1839 10.3049 24.1184 11.1052 23.3158C12.0547 22.3639 13.4161 21.9235 14.7374 22.1224C14.9031 21.36 15.2796 20.671 15.836 20.1098C15.9852 19.9606 16.1438 19.8162 16.3095 19.686C16.2953 19.6765 16.2811 19.6599 16.2669 19.6505C16.2077 19.6055 16.1083 19.5605 15.971 19.5842L11.1762 20.5478C8.41543 21.0995 5.93165 22.461 3.98535 24.4807V34.1009H3.98772Z" fill="#656565"/>
<path d="M0 33.8813H2.98811V24.666H0V33.8813Z" fill="#656565"/>
<path d="M13.4979 34.5335L20.2863 41.3313L20.3455 41.31C23.291 40.1664 25.8623 38.2343 27.7873 35.7221C27.8015 35.7031 27.8157 35.6866 27.8323 35.6723L32.215 31.2825C32.6081 30.8895 32.6128 30.2336 32.2198 29.8382C31.8291 29.4451 31.1661 29.4522 30.7778 29.8406L27.006 33.6219C26.8094 33.816 26.4898 33.8184 26.2956 33.6219C26.1015 33.4254 26.1015 33.1081 26.2956 32.9139L32.4258 26.7719C32.8022 26.3978 32.8022 25.7917 32.4281 25.4176C32.0635 25.0482 31.455 25.0482 31.0833 25.4176L24.9508 31.5619C24.7542 31.7561 24.4369 31.7561 24.2428 31.5619C24.0486 31.3654 24.0486 31.0481 24.2428 30.854L32.3689 22.716C32.7241 22.3561 32.7288 21.757 32.3713 21.3971C32.009 21.0396 31.4218 21.0396 31.0572 21.4042L22.9287 29.5446C22.7298 29.7387 22.4149 29.7387 22.2207 29.5446C22.0266 29.3078 22.0266 29.071 22.2207 28.8343L28.2893 22.7562C28.6989 22.3442 28.6989 21.6813 28.294 21.274C27.8891 20.8644 27.2238 20.8667 26.8142 21.2787L19.5357 28.5691C19.3676 28.7395 19.1071 28.7632 18.9059 28.6354C18.7093 28.5028 18.6312 28.2518 18.7164 28.0316L19.19 26.824C19.7204 25.4768 19.7204 23.9922 19.1853 22.6449C19.074 22.3632 18.6904 22.3253 18.5199 22.5763L15.8065 26.6512C14.2485 29.0024 13.4529 31.7229 13.4979 34.5335Z" fill="#656565"/>
<path d="M10.8105 37.4836L17.3124 43.9996L19.4268 41.8828L12.925 35.3691L10.8105 37.4836Z" fill="#656565"/>
<path d="M14.102 23.0716C13.2567 23.0716 12.4256 23.4031 11.81 24.0211C10.5503 25.2855 10.5503 27.3431 11.81 28.6075C11.8218 28.6169 11.8313 28.6288 11.8384 28.6382L11.8668 28.6643C12.0444 28.8324 12.0752 29.1047 11.9378 29.3059C10.8297 30.9421 10.9884 33.1251 12.2859 34.5908L12.499 34.3777C12.48 31.4251 13.3348 28.5696 14.978 26.1L17.6915 22.0156C18.3024 21.1206 19.7136 21.2603 20.1137 22.2761C20.6228 23.5618 20.7199 24.9516 20.4049 26.2776L22.4957 24.1845C22.8982 22.8514 22.3702 20.8625 21.0206 20.1025C19.5336 19.2643 17.8146 19.5366 16.5408 20.8128C16.0222 21.3313 15.7049 22.0227 15.6505 22.7544C15.6268 23.0551 15.3166 23.2918 15.0112 23.1971C14.7152 23.1166 14.4074 23.0716 14.102 23.0716Z" fill="#656565"/>
</svg>
