<svg width="24" height="26" viewBox="0 0 24 26" fill="none" xmlns="http://www.w3.org/2000/svg">
<path d="M18.715 11.8835H4.98239C4.37026 11.8835 3.90585 12.4236 3.94603 13.0842L4.48725 22.1372C4.52152 22.7033 5.00366 23.1606 5.56261 23.1606H18.1348C18.695 23.1606 19.1771 22.7033 19.2114 22.1372L19.7514 13.0842C19.7916 12.4236 19.3272 11.8835 18.715 11.8835ZM9.95739 22.4173C9.30863 22.669 8.29827 22.272 7.84803 21.6421C7.3978 21.0099 7.72159 20.1815 7.36117 19.3685C6.99957 18.5578 5.84622 17.655 5.62997 16.4296C5.41253 15.2053 5.77413 12.9636 6.81995 12.5512C7.86576 12.1388 8.96121 13.8038 9.31454 14.3049C9.95621 15.457 9.13374 17.7425 9.4008 18.6016C9.66787 19.4607 10.137 19.3874 10.3887 20.0184C10.6404 20.6495 10.6061 22.1632 9.95739 22.4173ZM18.2506 16.4284C18.0332 17.6538 16.881 18.5578 16.5194 19.3673C16.159 20.1803 16.484 21.0087 16.0326 21.6409C15.5823 22.2708 14.5732 22.6678 13.9232 22.4161C13.2745 22.1621 13.2378 20.6483 13.4907 20.0173C13.7436 19.3862 14.2115 19.4583 14.4798 18.6004C14.748 17.7425 13.9232 15.4559 14.5661 14.3037C14.9194 13.8026 16.016 12.1376 17.0607 12.55C18.1053 12.9624 18.4681 15.2042 18.2506 16.4284Z" fill="#656565"/>
<path d="M17.1848 9.31778H17.4613V9.04008V3.56994V3.29224H17.1848H6.69714H6.41943V3.56994V9.04008V9.31778H6.69714H17.1848ZM6.69714 3.57112H17.1848V9.04126H12.5832L12.3504 6.0598L12.1176 9.04126H6.69714V3.57112Z" fill="#656565"/>
<path d="M7.1157 4.03662H6.87817V5.57875H7.1157V4.03662Z" fill="#656565"/>
<path d="M7.58103 4.03662H7.34351V5.57875H7.58103V4.03662Z" fill="#656565"/>
<path d="M8.04661 4.03662H7.80908V5.57875H8.04661V4.03662Z" fill="#656565"/>
<path d="M8.97894 4.03662H8.74023V5.57875H8.97894V4.03662Z" fill="#656565"/>
<path d="M9.44333 4.03662H9.20581V5.57875H9.44333V4.03662Z" fill="#656565"/>
<path d="M9.90863 4.03662H9.66992V5.57875H9.90863V4.03662Z" fill="#656565"/>
<path d="M10.3745 4.03662H10.137V5.57875H10.3745V4.03662Z" fill="#656565"/>
<path d="M10.8403 4.03662H10.6016V5.57875H10.8403V4.03662Z" fill="#656565"/>
<path d="M11.7712 4.03662H11.5337V5.57875H11.7712V4.03662Z" fill="#656565"/>
<path d="M12.2368 4.03662H11.9993V5.57875H12.2368V4.03662Z" fill="#656565"/>
<path d="M12.7026 4.03662H12.4651V5.57875H12.7026V4.03662Z" fill="#656565"/>
<path d="M13.1681 4.03662H12.9294V5.57875H13.1681V4.03662Z" fill="#656565"/>
<path d="M14.0981 4.03662H13.8606V5.57875H14.0981V4.03662Z" fill="#656565"/>
<path d="M14.5647 4.03662H14.3271V5.57875H14.5647V4.03662Z" fill="#656565"/>
<path d="M15.029 4.03662H14.7915V5.57875H15.029V4.03662Z" fill="#656565"/>
<path d="M15.4946 4.03662H15.2571V5.57875H15.4946V4.03662Z" fill="#656565"/>
<path d="M15.9604 4.03662H15.7229V5.57875H15.9604V4.03662Z" fill="#656565"/>
<path d="M16.8918 4.03662H16.6543V5.57875H16.8918V4.03662Z" fill="#656565"/>
<path d="M16.426 5.57757V4.03662H16.1885V5.57757V8.08044H16.426V5.57757Z" fill="#656565"/>
<path d="M13.6337 4.03662H13.395V8.08044H13.6337V4.03662Z" fill="#656565"/>
<path d="M11.3056 4.03662H11.0669V8.08044H11.3056V4.03662Z" fill="#656565"/>
<path d="M8.51337 4.03662H8.27466V8.08044H8.51337V4.03662Z" fill="#656565"/>
<path d="M21.5145 0H2.36604C0.986982 0 -0.100192 1.1758 0.00734393 2.55131L1.67828 23.8197C1.77518 25.0511 2.80209 26 4.03698 26H19.8435C21.0796 26 22.1065 25.0511 22.2034 23.8197L23.8732 2.55131C23.9819 1.1758 22.8947 0 21.5145 0ZM21.0879 22.6428C21.0028 23.7406 20.0858 24.5867 18.9856 24.5867H4.8949C3.79473 24.5867 2.8789 23.7406 2.79264 22.6428L1.30368 3.68576C1.20678 2.45914 2.17578 1.41214 3.40594 1.41214H20.4734C21.7036 1.41214 22.6714 2.46032 22.5757 3.68576L21.0879 22.6428Z" fill="#656565"/>
</svg>
