<svg width="10" height="20" viewBox="0 0 10 20" fill="none" xmlns="http://www.w3.org/2000/svg">
<path d="M4.94837 5.00539C6.33058 5.00539 7.45107 3.8849 7.45107 2.5027C7.45107 1.12049 6.33058 0 4.94837 0C3.56617 0 2.44568 1.12049 2.44568 2.5027C2.44568 3.8849 3.56617 5.00539 4.94837 5.00539Z" fill="#656565"/>
<path d="M9.86935 11.4475L7.73393 6.24578C7.61179 5.98332 7.50372 5.63159 7.00197 5.63159C6.81661 5.63159 6.63286 5.63159 6.42059 5.63159H3.80731C3.59099 5.63159 3.47856 5.63159 3.21211 5.63159C2.71164 5.63159 2.45054 5.9577 2.30733 6.25143L0.0892677 11.4138C-0.121952 11.8472 0.054495 12.3709 0.483141 12.5835C0.912093 12.7961 1.43111 12.6171 1.64233 12.1835L1.80926 11.8413C1.80926 11.8413 1.86111 11.7489 1.84163 11.851C1.72091 12.4868 1.38755 14.3991 1.38755 14.3991C1.30658 14.7971 1.57242 15.1227 1.97852 15.1227C1.97852 15.1227 2.70298 15.1227 2.94443 15.1227C3.01354 15.1227 3.00126 15.1748 3.00126 15.1748V19.0186C3.00126 19.6624 3.40219 20 3.89701 20C4.39164 20 4.79282 19.6624 4.79282 19.0186V15.1594C4.79282 15.1594 4.79079 15.1213 4.83109 15.1227C4.88313 15.1243 5.01485 15.1229 5.07389 15.1229C5.10756 15.1229 5.10332 15.1635 5.10332 15.1635V19.0186C5.10332 19.6624 5.5045 20 5.99932 20C6.49395 20 6.89507 19.6624 6.89507 19.0186V15.185C6.89507 15.185 6.88917 15.1227 6.96339 15.1227C7.2232 15.1227 8.00241 15.1227 8.00241 15.1227C8.40844 15.1227 8.68086 14.7958 8.60762 14.3964C8.60762 14.3964 8.27353 12.3453 8.18451 11.7865C8.15901 11.6264 8.42509 12.1951 8.42509 12.1951C8.62857 12.6322 9.02152 12.8147 9.4541 12.61C9.88705 12.4051 10.0728 11.8848 9.86935 11.4475Z" fill="#656565"/>
</svg>
