<svg width="24" height="24" viewBox="0 0 24 24" fill="none" xmlns="http://www.w3.org/2000/svg">
<path d="M1.56522 9.3913H3.51861C3.68243 8.85652 3.89687 8.34 4.15722 7.848L2.77722 6.468C2.48191 6.1727 2.31913 5.7793 2.31913 5.36035C2.31913 4.94191 2.48191 4.54852 2.77722 4.25322L4.25374 2.7767C4.84383 2.18661 5.87687 2.18504 6.468 2.7767L7.848 4.1567C8.33948 3.89635 8.85652 3.68243 9.3913 3.51809V1.56522C9.3913 0.702261 10.0936 0 10.9565 0H13.0435C13.9064 0 14.6087 0.702261 14.6087 1.56522V3.51861C15.1435 3.68296 15.66 3.89687 16.152 4.15722L17.5325 2.77722C18.143 2.16678 19.1363 2.16678 19.7468 2.77722L21.2238 4.25374C21.8337 4.86417 21.8337 5.85757 21.2238 6.468L19.8438 7.84852C20.1042 8.34 20.3181 8.85704 20.4824 9.39183H22.4348C23.2977 9.39183 24 10.0941 24 10.957V13.044C24 13.9064 23.2977 14.6087 22.4348 14.6087H20.4814C20.317 15.1435 20.1031 15.66 19.8428 16.152L21.2228 17.5325C21.8332 18.143 21.8332 19.1363 21.2228 19.7468L19.7463 21.2238C19.1358 21.8337 18.1424 21.8337 17.532 21.2238L16.1515 19.8438C15.66 20.1042 15.143 20.3181 14.6082 20.4824V22.4348C14.6082 23.2977 13.9059 24 13.043 24H10.956C10.093 24 9.39078 23.2977 9.39078 22.4348V20.4814C8.856 20.317 8.33896 20.1031 7.84748 19.8428L6.46748 21.2233C5.87583 21.8144 4.84278 21.8134 4.25322 21.2233L2.7767 19.7468C2.48139 19.4515 2.31861 19.0581 2.31861 18.6397C2.31861 18.2207 2.48139 17.8278 2.7767 17.5325L4.15669 16.152C3.89635 15.6605 3.68243 15.1435 3.51809 14.6087H1.56522C0.702261 14.6087 0 13.9064 0 13.0435V10.9565C0 10.0936 0.702261 9.3913 1.56522 9.3913ZM1.04348 13.0435C1.04348 13.331 1.27722 13.5652 1.56522 13.5652H3.91304C4.15096 13.5652 4.35861 13.7264 4.41809 13.9565C4.60278 14.6687 4.884 15.3485 5.25496 15.9767C5.37548 16.1817 5.34261 16.4426 5.17461 16.6106L3.51548 18.2703C3.41739 18.3683 3.36313 18.4993 3.36313 18.6397C3.36313 18.78 3.41739 18.911 3.51548 19.009L4.992 20.4856C5.18818 20.6817 5.53409 20.6817 5.73078 20.4856L7.38991 18.8264C7.55791 18.6579 7.81878 18.6256 8.02435 18.7461C8.65148 19.1165 9.3313 19.3983 10.044 19.5824C10.2736 19.6414 10.4348 19.849 10.4348 20.087V22.4348C10.4348 22.7223 10.6685 22.9565 10.9565 22.9565H13.0435C13.331 22.9565 13.5652 22.7223 13.5652 22.4348V20.087C13.5652 19.849 13.7264 19.6414 13.9565 19.5819C14.6687 19.3977 15.3485 19.1165 15.9767 18.7456C16.0591 18.6965 16.1504 18.673 16.2417 18.673C16.3769 18.673 16.5104 18.7252 16.6111 18.8259L18.2703 20.485C18.4743 20.6885 18.805 20.6885 19.009 20.485L20.4856 19.0085C20.6896 18.8045 20.6896 18.4732 20.4856 18.2697L18.8264 16.6106C18.6579 16.4421 18.625 16.1812 18.7461 15.9767C19.1165 15.3485 19.3983 14.6692 19.5824 13.9565C19.6414 13.7264 19.849 13.5652 20.087 13.5652H22.4348C22.7223 13.5652 22.9565 13.331 22.9565 13.0435V10.9565C22.9565 10.669 22.7223 10.4348 22.4348 10.4348H20.087C19.849 10.4348 19.6414 10.2736 19.5819 10.0435C19.3977 9.3313 19.1165 8.65148 18.7456 8.0233C18.6245 7.81826 18.6574 7.55739 18.8259 7.38939L20.485 5.73026C20.6885 5.52678 20.6885 5.19548 20.485 4.99148L19.0085 3.51496C18.8045 3.31096 18.4737 3.31148 18.2697 3.51496L16.6106 5.17409C16.4421 5.34261 16.1817 5.376 15.9767 5.25443C15.3485 4.884 14.6692 4.60226 13.9565 4.41809C13.7264 4.35861 13.5652 4.15096 13.5652 3.91304V1.56522C13.5652 1.27774 13.331 1.04348 13.0435 1.04348H10.9565C10.6685 1.04348 10.4348 1.27774 10.4348 1.56522V3.91304C10.4348 4.15096 10.2736 4.35861 10.0435 4.41809C9.33078 4.60226 8.65096 4.884 8.02383 5.25443C7.81826 5.37548 7.55739 5.34313 7.38939 5.17409L5.73026 3.51496C5.53357 3.31774 5.18765 3.31826 4.99148 3.51496L3.51496 4.99148C3.41687 5.08957 3.36261 5.22104 3.36261 5.36087C3.36261 5.5007 3.41687 5.63217 3.51496 5.73026L5.17409 7.38939C5.34209 7.55791 5.37548 7.81878 5.25443 8.0233C4.88348 8.65148 4.60226 9.33078 4.41756 10.0435C4.35861 10.2736 4.15096 10.4348 3.91304 10.4348H1.56522C1.27722 10.4348 1.04348 10.669 1.04348 10.9565V13.0435Z" fill="black"/>
</svg>
