<svg width="23" height="23" viewBox="0 0 23 23" fill="none" xmlns="http://www.w3.org/2000/svg">
<g clip-path="url(#clip0)">
<path d="M22.9069 1.99676C22.822 1.91173 22.6963 1.88199 22.5824 1.91957L18.8725 3.14385C18.7677 3.17847 18.6882 3.26498 18.6626 3.37243C18.6372 3.47983 18.6692 3.5928 18.7472 3.67088L19.1693 4.09279L18.1825 5.07964C17.0839 4.34258 15.7629 3.98921 14.432 4.08277C12.9946 4.18328 11.6412 4.80048 10.621 5.82057C10.4058 6.03568 10.2079 6.26787 10.0285 6.51172C8.10237 6.09118 6.00761 6.62686 4.51308 8.12143C3.49295 9.14152 2.87574 10.4949 2.77513 11.9323C2.68199 13.2632 3.03504 14.5843 3.77205 15.6829L2.78531 16.6697L2.36319 16.2476C2.30355 16.1879 2.22271 16.1544 2.13831 16.1544C2.05392 16.1544 1.97308 16.1879 1.91344 16.2476L0.721608 17.4395C0.597352 17.5637 0.597352 17.7651 0.721608 17.8893L1.14363 18.3113L0.0933278 19.3615C-0.0309288 19.4858 -0.0309288 19.6872 0.0932218 19.8113L1.28511 21.0032C1.34475 21.0629 1.42559 21.0964 1.50998 21.0964C1.59437 21.0964 1.67521 21.0629 1.73485 21.0033L2.78525 19.9529L3.20727 20.3748C3.33132 20.499 3.53281 20.4991 3.65701 20.3749L4.8488 19.1831C4.90854 19.1234 4.94199 19.0426 4.94199 18.9582C4.94199 18.8738 4.90854 18.7929 4.8488 18.7332L4.42678 18.3113L5.41389 17.3242C6.39697 17.9836 7.55768 18.336 8.74464 18.336C8.88411 18.336 9.02417 18.3311 9.16406 18.3214C10.6014 18.2208 11.9549 17.6036 12.9749 16.5835C13.1888 16.3697 13.3858 16.139 13.5644 15.8968C13.9827 15.9881 14.4136 16.0352 14.852 16.0352C16.4502 16.0351 17.9528 15.4128 19.083 14.2826C20.1031 13.2625 20.7203 11.9091 20.8209 10.4717C20.9141 9.14083 20.5611 7.81986 19.8241 6.72121L20.8108 5.73432L21.2329 6.15633C21.3109 6.23447 21.4242 6.26622 21.5313 6.24094C21.6387 6.21539 21.7252 6.13603 21.7599 6.03112L22.9841 2.32129C23.0217 2.20726 22.9919 2.08168 22.9069 1.99676ZM12.5252 16.1337C10.667 17.9919 7.67574 18.2161 5.56719 16.6549L5.56688 16.6554C5.4423 16.5632 5.26631 16.5724 5.15345 16.6852L3.75222 18.0864C3.69248 18.1461 3.65903 18.227 3.65903 18.3113C3.65903 18.3957 3.69248 18.4766 3.75222 18.5363L4.17424 18.9582L3.43219 19.7002L3.01018 19.2783C2.88613 19.154 2.68464 19.1541 2.56044 19.2782L1.51009 20.3285L0.768046 19.5864L1.81834 18.5363C1.9426 18.412 1.9426 18.2106 1.81845 18.0865L1.39643 17.6644L2.13837 16.9224L2.56049 17.3444C2.68464 17.4686 2.88613 17.4686 3.01023 17.3444L4.41146 15.943C4.52432 15.8302 4.53354 15.6544 4.44141 15.5299L4.44167 15.5293C2.88046 13.4209 3.10448 10.4296 4.96287 8.57118C7.04788 6.48627 10.4402 6.48627 12.5252 8.57118C13.8321 9.87804 14.366 11.7629 13.9552 13.5527C13.5965 13.4615 13.2494 13.3143 12.9274 13.112C13.1781 11.7359 12.7469 10.3424 11.7505 9.34598C10.9474 8.54292 9.8797 8.1006 8.74401 8.1006C7.60831 8.1006 6.54068 8.54287 5.73752 9.34598C4.93462 10.149 4.4923 11.2167 4.4923 12.3524C4.4923 13.4881 4.93462 14.5557 5.73762 15.3588C6.54073 16.1618 7.60842 16.6041 8.74411 16.6041C8.74422 16.6041 8.74411 16.6041 8.74422 16.6041C9.87981 16.6041 10.9475 16.1619 11.7505 15.3589C11.7895 15.3199 11.8272 15.2792 11.8648 15.2385C12.1955 15.4297 12.5432 15.5881 12.9037 15.7118C12.7849 15.8584 12.6589 15.9999 12.5252 16.1337ZM12.975 8.12143C12.7531 7.89964 12.518 7.69894 12.2722 7.51934C12.2801 7.51139 12.2875 7.50285 12.2954 7.49496C12.9783 6.81207 13.8862 6.43602 14.852 6.43602C15.8178 6.43602 16.7257 6.81213 17.4086 7.49501C18.0916 8.178 18.4677 9.08596 18.4677 10.0517C18.4677 11.0175 18.0917 11.9254 17.4087 12.6082C16.6358 13.3811 15.5974 13.7293 14.5846 13.6547C15.027 11.6643 14.4274 9.57387 12.975 8.12143ZM12.3472 12.6583C12.3299 12.6417 12.3125 12.6253 12.2953 12.6082C11.5304 11.8434 11.1575 10.803 11.2491 9.74674C11.2662 9.76322 11.2838 9.77897 11.3006 9.79583C12.0658 10.561 12.439 11.6017 12.3472 12.6583ZM10.6211 14.2826C10.8416 14.5032 11.0766 14.7041 11.3235 14.8852C11.3158 14.893 11.3085 14.9014 11.3007 14.9091C10.6178 15.592 9.70986 15.9681 8.74406 15.9681C7.77826 15.9681 6.87035 15.5919 6.18742 14.909C5.50448 14.2261 5.12832 13.3181 5.12832 12.3524C5.12832 11.3867 5.50438 10.4787 6.18731 9.79577C6.87025 9.11284 7.77816 8.73673 8.74395 8.73673C8.83407 8.73673 8.92366 8.74017 9.01261 8.74669C8.56897 10.7379 9.16799 12.8295 10.6211 14.2826ZM21.3176 5.34146L21.0359 5.05971C20.9762 5.00002 20.8953 4.96651 20.811 4.96651C20.7267 4.96651 20.6457 5.00002 20.5861 5.05971L19.1847 6.46114C19.0718 6.574 19.0626 6.74989 19.1549 6.87447L19.1544 6.87479C20.7156 8.98328 20.4916 11.9746 18.6332 13.8329C17.6232 14.8429 16.2804 15.3991 14.8521 15.3991C13.4237 15.3991 12.0809 14.8429 11.0709 13.8328C9.76351 12.5255 9.22985 10.6397 9.64174 8.84916C10.0052 8.94199 10.3511 9.09089 10.6689 9.29159C10.4179 10.6679 10.8491 12.0618 11.8456 13.0581C12.0121 13.2246 12.1894 13.3735 12.3746 13.5066C12.3865 13.5159 12.3988 13.5248 12.4119 13.5325C13.1414 14.0444 13.9964 14.3015 14.852 14.3015C15.9408 14.3015 17.0296 13.8871 17.8584 13.0581C18.6615 12.2551 19.1037 11.1875 19.1037 10.0518C19.1037 8.91606 18.6614 7.84843 17.8584 7.04532C17.0553 6.24221 15.9876 5.8 14.8519 5.8C13.7163 5.8 12.6486 6.24226 11.8455 7.04527C11.8062 7.08465 11.768 7.1259 11.7299 7.16709C11.3962 6.97498 11.0475 6.81881 10.6896 6.6963C10.8091 6.54824 10.9358 6.40538 11.0707 6.27047C12.9292 4.41223 15.9204 4.18821 18.0289 5.74932C18.0289 5.74932 18.265 5.88778 18.4427 5.71905L19.844 4.31766C19.9036 4.25803 19.9371 4.17713 19.9371 4.09279C19.9371 4.0084 19.9035 3.92751 19.8439 3.86787L19.5622 3.58622L22.1822 2.72162L21.3176 5.34146Z" fill="#656565" fill-opacity="0.8"/>
</g>
<defs>
<clipPath id="clip0">
<rect width="23" height="23" fill="white"/>
</clipPath>
</defs>
</svg>
