<svg width="21" height="30" viewBox="0 0 21 30" fill="none" xmlns="http://www.w3.org/2000/svg">
<path d="M8.90905 26.9353H2.72347C2.17169 26.9353 1.72319 26.4868 1.72319 25.9336V16.8137C1.72319 16.2619 2.17169 15.8134 2.72347 15.8134H8.52988C8.81567 15.8134 9.0477 15.5814 9.0477 15.2956C9.0477 15.0112 8.81567 14.7778 8.52988 14.7778H2.72347C2.17169 14.7778 1.72319 14.3307 1.72319 13.7789V12.8479C1.72319 12.2962 2.17169 11.8491 2.72347 11.8491H9.78198C10.1682 11.8491 10.5149 12.0656 10.6832 12.4136C10.8077 12.6725 11.1176 12.78 11.3737 12.6555C11.6326 12.531 11.7401 12.2212 11.6156 11.9651C11.4967 11.7203 11.3326 11.5081 11.1345 11.3327C11.5533 10.9592 11.8165 10.4173 11.8165 9.81458V8.88364C11.8165 8.31064 11.5774 7.79281 11.194 7.42213C11.576 7.0854 11.8165 6.59305 11.8165 6.04551C11.8165 4.4779 10.6691 3.17343 9.1722 2.92584V0.517824C9.1722 0.232031 8.94017 0 8.65579 0H3.84966C3.56386 0 3.33325 0.232031 3.33325 0.517824V2.92584C1.83355 3.17343 0.688965 4.4779 0.688965 6.04551C0.688965 6.59305 0.929477 7.08399 1.31006 7.42213C0.926647 7.79281 0.688965 8.31064 0.688965 8.88364V9.81458C0.688965 10.4173 0.953529 10.9592 1.36948 11.3313C0.952114 11.7048 0.688965 12.2452 0.688965 12.8479V13.7789C0.688965 14.3816 0.953529 14.9235 1.36948 15.2956C0.952114 15.6691 0.688965 16.2096 0.688965 16.8137V25.9336C0.688965 27.057 1.60293 27.9695 2.72347 27.9695H8.90905C9.19342 27.9695 9.42686 27.7375 9.42686 27.4517C9.42686 27.1659 9.19342 26.9353 8.90905 26.9353ZM8.13797 1.03282V2.8834H4.36749V1.03282H8.13797ZM2.52681 6.84771C2.08397 6.84771 1.72319 6.48552 1.72319 6.0441C1.72319 4.87122 2.67677 3.91621 3.84966 3.91621H8.65579C9.82726 3.91621 10.7823 4.87122 10.7823 6.0441C10.7823 6.48694 10.4201 6.84771 9.97864 6.84771H2.52681ZM1.72319 9.81317V8.88222C1.72319 8.33044 2.17169 7.88336 2.72347 7.88336H9.78198C10.3338 7.88336 10.7823 8.33044 10.7823 8.88222V9.81317C10.7823 10.3649 10.3338 10.8134 9.78198 10.8134H2.72347C2.17169 10.8134 1.72319 10.3635 1.72319 9.81317Z" fill="#656565"/>
<path d="M10.1784 15.113L11.3824 28.6486H18.9049L20.109 15.113H10.1784ZM10.1784 14.533H20.109C20.4301 14.533 20.6876 14.7919 20.689 15.1102C20.689 15.1286 20.6876 15.1456 20.6862 15.1626L19.4822 28.7009C19.4553 28.9995 19.2049 29.2287 18.9049 29.2272H11.3809C11.081 29.2287 10.8292 28.9995 10.8037 28.7009L9.59969 15.164C9.56998 14.8442 9.80626 14.5641 10.1232 14.5358C10.1416 14.5344 10.16 14.533 10.1784 14.533Z" fill="#656565"/>
<path d="M10.8982 16.4472C11.7061 16.044 12.6285 15.9251 13.5099 16.1133C15.0677 16.409 15.6619 16.6976 17.0908 16.8603C17.8959 16.9721 18.7165 16.8292 19.4366 16.4472L18.4222 28.0869H11.8886L10.8982 16.4472Z" fill="#656565"/>
</svg>
