<svg width="31" height="28" viewBox="0 0 31 28" fill="none" xmlns="http://www.w3.org/2000/svg">
<path d="M19.1949 18.9545C18.5645 20.2834 17.0951 21.8945 16.2117 22.6006C16.5371 20.9754 17.5795 19.4422 17.3719 17.7499C17.1416 15.848 15.5207 15.3982 14.9779 13.7254C14.8298 17.0828 11.5849 17.7229 13.0251 20.8359C13.5387 21.9399 14.6665 22.3746 15.6029 22.5314C14.7033 22.4449 13.1895 22.3054 12.5396 22.0545C10.3101 21.1798 8.33455 18.7869 9.89051 15.6728C10.3155 14.8262 10.8237 14.4077 11.6714 13.4021C11.347 14.8597 12.2347 15.7225 13.0954 16.061C12.5916 14.6434 12.7959 12.9318 13.5171 11.6375C14.2654 10.2848 15.0223 9.1062 15.2234 7.4021C15.5694 10.1431 16.6572 12.6377 18.1688 14.6413C19.0695 15.8339 19.8988 17.4742 19.1949 18.9545Z" fill="#656565"/>
<path d="M16.4438 20.2675C16.3757 20.9887 16.1562 21.578 16.2113 22.6009C15.7766 22.3846 14.2607 21.4591 14.5342 20.2675C14.8024 19.1029 15.396 18.744 15.4901 17.9341C15.5214 17.9341 16.5562 19.0651 16.4438 20.2675Z" fill="#656565"/>
<path d="M24.4712 4.00508C27.687 6.76667 29.5208 10.7447 29.5208 15.0006C29.5208 19.3495 27.6221 23.3838 24.2939 26.1443L22.3411 23.6217C24.8854 21.471 26.3321 18.358 26.3321 15.0006C26.3321 11.7178 24.9329 8.64701 22.4763 6.49527L24.4712 4.00508ZM24.3966 3.28711L21.7713 6.56447C24.349 8.62971 25.8261 11.7038 25.8261 15.0006C25.8261 18.3677 24.2993 21.4807 21.6372 23.5395L24.2074 26.8612C27.9054 24.0001 30.0269 19.6761 30.0269 14.9995C30.0269 10.4214 27.9746 6.1525 24.3966 3.28711Z" fill="#656565"/>
<path d="M5.85387 26.8633C2.15049 24.0055 0.0268555 19.6814 0.0268555 15.0006C0.0268555 6.72988 6.75565 0 15.0264 0C18.4259 0 21.7541 1.16778 24.3978 3.28709L21.7703 6.56445C19.8413 5.01714 17.509 4.19861 15.0264 4.19861C9.07067 4.19861 4.22654 9.04382 4.22654 14.9995C4.22654 18.3688 5.75547 21.4796 8.41974 23.5373L5.85387 26.8633Z" fill="#656565"/>
<path d="M21.4113 25.811L20.2176 25.638L19.6835 24.5557L19.1493 25.638L17.9556 25.811L18.8195 26.6523L18.6162 27.8428L19.6845 27.2805L20.7507 27.8428L20.5474 26.6523L21.4113 25.811ZM19.6835 26.995L18.9503 27.38L19.0898 26.5636L18.4995 25.9873L19.318 25.8694L19.6835 25.1277L20.0489 25.8694L20.8664 25.9873L20.2749 26.5636L20.4144 27.3789L19.6835 26.995Z" fill="#656565"/>
<path d="M15.0261 24.5557L15.5603 25.638L16.754 25.811L15.8901 26.6523L16.0944 27.8428L15.0261 27.2805L13.9589 27.8428L14.1622 26.6523L13.2993 25.811L14.492 25.638L15.0261 24.5557Z" fill="#656565"/>
<path d="M10.3705 24.5557L10.9046 25.638L12.0983 25.811L11.2344 26.6523L11.4388 27.8428L10.3705 27.2805L9.30324 27.8428L9.50652 26.6523L8.64258 25.811L9.83632 25.638L10.3705 24.5557Z" fill="#656565"/>
</svg>
