<svg width="10" height="20" viewBox="0 0 10 20" fill="none" xmlns="http://www.w3.org/2000/svg">
<path d="M7.74948 6.19341C7.6004 5.79199 7.19749 5.56519 6.78787 5.56519C6.58339 5.56519 6.56452 5.57043 6.44276 5.57043H3.13009C3.00827 5.57043 2.90001 5.57043 2.78479 5.57043C2.317 5.57043 1.97245 5.79193 1.82336 6.19341L0.0545821 11.5724C-0.113932 12.0263 0.113796 12.5322 0.563147 12.7024C1.01256 12.8727 1.51347 12.6427 1.68205 12.1889L2.15231 10.9227C2.15231 10.9227 2.18587 10.795 2.18587 11.3525V18.8183C2.18587 19.471 2.70979 20.0001 3.35615 20.0001C4.00251 20.0001 4.52643 19.471 4.52643 18.8183V13.9409C4.52643 13.9409 4.52076 13.8977 4.56616 13.8977C4.67595 13.8977 4.89572 13.8977 5.00558 13.8977C5.04894 13.8977 5.04653 13.9409 5.04653 13.9409V18.8183C5.04653 19.471 5.57046 20.0001 6.21682 20.0001C6.86318 20.0001 7.3871 19.471 7.3871 18.8183V11.3525C7.3871 10.7861 7.43626 10.9645 7.43626 10.9645L7.89098 12.189C8.05943 12.6428 8.56047 12.8728 9.00988 12.7025C9.45923 12.5322 9.68702 12.0264 9.51845 11.5726L7.74948 6.19341Z" fill="black"/>
<path d="M4.80972 4.97363C6.19742 4.97363 7.32238 3.86025 7.32238 2.48682C7.32238 1.11339 6.19742 0 4.80972 0C3.42201 0 2.29706 1.11339 2.29706 2.48682C2.29706 3.86025 3.42201 4.97363 4.80972 4.97363Z" fill="black"/>
</svg>
