<svg width="41" height="44" viewBox="0 0 41 44" fill="none" xmlns="http://www.w3.org/2000/svg">
<path d="M31.6717 20.1104H8.43177C7.39586 20.1104 6.60993 21.0243 6.67793 22.1422L7.59384 37.4628C7.65184 38.4207 8.46776 39.1946 9.41368 39.1946H30.6897C31.6377 39.1946 32.4536 38.4207 32.5116 37.4628L33.4255 22.1422C33.4935 21.0243 32.7076 20.1104 31.6717 20.1104ZM16.851 37.9367C15.7531 38.3627 14.0433 37.6908 13.2813 36.6248C12.5194 35.5549 13.0673 34.1531 12.4574 32.7772C11.8455 31.4053 9.89364 29.8775 9.52767 27.8037C9.1597 25.7318 9.77165 21.9382 11.5415 21.2402C13.3113 20.5423 15.1652 23.3601 15.7631 24.208C16.849 26.1578 15.4571 30.0254 15.9091 31.4793C16.361 32.9332 17.155 32.8092 17.5809 33.8771C18.0069 34.945 17.9489 37.5068 16.851 37.9367ZM30.8857 27.8017C30.5178 29.8755 28.5679 31.4053 27.956 32.7752C27.3461 34.1511 27.896 35.5529 27.1321 36.6229C26.3701 37.6888 24.6623 38.3607 23.5624 37.9347C22.4645 37.5048 22.4025 34.943 22.8305 33.8751C23.2584 32.8072 24.0504 32.9292 24.5043 31.4773C24.9583 30.0255 23.5624 26.1558 24.6503 24.206C25.2482 23.3581 27.1041 20.5403 28.8719 21.2382C30.6398 21.9362 31.2537 25.7298 30.8857 27.8017Z" fill="#656565"/>
<path d="M29.0816 15.7688H29.5496V15.2989V6.04173V5.57178H29.0816H11.3332H10.8633V6.04173V15.2989V15.7688H11.3332H29.0816ZM11.3332 6.04373H29.0816V15.3009H21.2943L20.9004 10.2554L20.5064 15.3009H11.3332V6.04373Z" fill="#656565"/>
<path d="M12.0414 6.83154H11.6394V9.4413H12.0414V6.83154Z" fill="#656565"/>
<path d="M12.8292 6.83154H12.4272V9.4413H12.8292V6.83154Z" fill="#656565"/>
<path d="M13.6173 6.83154H13.2153V9.4413H13.6173V6.83154Z" fill="#656565"/>
<path d="M15.195 6.83154H14.791V9.4413H15.195V6.83154Z" fill="#656565"/>
<path d="M15.9811 6.83154H15.5791V9.4413H15.9811V6.83154Z" fill="#656565"/>
<path d="M16.769 6.83154H16.365V9.4413H16.769V6.83154Z" fill="#656565"/>
<path d="M17.557 6.83154H17.155V9.4413H17.557V6.83154Z" fill="#656565"/>
<path d="M18.3449 6.83154H17.9409V9.4413H18.3449V6.83154Z" fill="#656565"/>
<path d="M19.9205 6.83154H19.5186V9.4413H19.9205V6.83154Z" fill="#656565"/>
<path d="M20.7084 6.83154H20.3064V9.4413H20.7084V6.83154Z" fill="#656565"/>
<path d="M21.4964 6.83154H21.0945V9.4413H21.4964V6.83154Z" fill="#656565"/>
<path d="M22.2843 6.83154H21.8804V9.4413H22.2843V6.83154Z" fill="#656565"/>
<path d="M23.8583 6.83154H23.4563V9.4413H23.8583V6.83154Z" fill="#656565"/>
<path d="M24.6481 6.83154H24.2461V9.4413H24.6481V6.83154Z" fill="#656565"/>
<path d="M25.4342 6.83154H25.0322V9.4413H25.4342V6.83154Z" fill="#656565"/>
<path d="M26.222 6.83154H25.8201V9.4413H26.222V6.83154Z" fill="#656565"/>
<path d="M27.0101 6.83154H26.6082V9.4413H27.0101V6.83154Z" fill="#656565"/>
<path d="M28.5858 6.83154H28.1838V9.4413H28.5858V6.83154Z" fill="#656565"/>
<path d="M27.798 9.43931V6.83154H27.396V9.43931V13.6749H27.798V9.43931Z" fill="#656565"/>
<path d="M23.0724 6.83154H22.6685V13.6749H23.0724V6.83154Z" fill="#656565"/>
<path d="M19.1327 6.83154H18.7288V13.6749H19.1327V6.83154Z" fill="#656565"/>
<path d="M14.4071 6.83154H14.0032V13.6749H14.4071V6.83154Z" fill="#656565"/>
<path d="M36.4091 0H4.00407C1.67028 0 -0.169555 1.98982 0.0124282 4.31761L2.84017 40.3103C3.00416 42.3942 4.742 44 6.83181 44H33.5814C35.6732 44 37.411 42.3942 37.575 40.3103L40.4008 4.31761C40.5847 1.98982 38.7449 0 36.4091 0ZM35.6872 38.3185C35.5432 40.1763 33.9913 41.6082 32.1295 41.6082H8.28368C6.42185 41.6082 4.87199 40.1763 4.726 38.3185L2.20623 6.23743C2.04224 4.16162 3.6821 2.38978 5.76391 2.38978H34.6473C36.7291 2.38978 38.3669 4.16362 38.205 6.23743L35.6872 38.3185Z" fill="#656565"/>
</svg>
