<svg width="38" height="38" viewBox="0 0 38 38" fill="none" xmlns="http://www.w3.org/2000/svg">
<path d="M37.9539 21.1832C37.6731 19.2377 36.1449 17.7095 34.1995 17.4287V16.2773C34.1995 13.1005 31.7846 10.514 28.8162 10.514C25.9333 10.514 23.5197 13.022 23.433 16.105H23.4697L23.433 16.1113V28.5923C23.433 32.5822 20.45 35.8223 16.7831 35.8223C13.1161 35.8223 10.1332 32.5778 10.1332 28.5923V27.5112C11.0515 27.5112 12.0331 26.8455 12.0331 24.9779V23.3851C16.0978 22.3458 18.9997 18.8555 18.9997 14.8985V13.578H17.733L17.7064 5.33533C17.6973 3.80957 16.6024 2.50683 15.101 2.23521C14.7771 1.24303 13.7102 0.701218 12.7179 1.02516C11.7257 1.34903 11.1839 2.41594 11.5079 3.4082C11.8317 4.40038 12.8987 4.94219 13.8909 4.61825C14.4222 4.4448 14.8494 4.04509 15.0579 3.52656C15.8693 3.7574 16.4313 4.49554 16.4379 5.33913L16.4664 13.578H15.1998V14.9169C15.1492 17.1198 13.6723 19.0342 11.5543 19.6421C10.4211 20.0017 9.20432 20.0017 8.07107 19.6421C5.95553 19.0322 4.48195 17.1181 4.43326 14.9169V13.578H2.53329V5.34483C2.53693 4.48881 3.11262 3.74086 3.93927 3.51832C4.32473 4.49958 5.43265 4.98249 6.4139 4.59703C7.39516 4.21158 7.87807 3.10357 7.49261 2.1224C7.10715 1.14122 5.99915 0.658231 5.01798 1.04369C4.4863 1.25261 4.07607 1.68857 3.9 2.23204C2.38217 2.49139 1.27084 3.80498 1.26665 5.34483V13.578H0V14.8954C0 18.8568 2.90379 22.3483 6.96656 23.3851V24.9779C6.96656 26.8455 7.94821 27.5112 8.86652 27.5112V28.5923C8.86652 33.2789 12.4176 37.0889 16.7831 37.0889C21.1486 37.0889 24.6996 33.2744 24.6996 28.5923V16.1417C24.7629 13.7383 26.611 11.7826 28.8162 11.7826C31.086 11.7826 32.9328 13.7991 32.9328 16.2792V17.4287C30.5095 17.7784 28.8286 20.0265 29.1783 22.4498C29.5281 24.8731 31.7761 26.5541 34.1995 26.2043C36.6228 25.8546 38.3037 23.6064 37.9539 21.1832ZM13.2998 3.44486C12.95 3.44486 12.6665 3.16129 12.6665 2.81153C12.6665 2.46178 12.95 2.17821 13.2998 2.17821C13.6495 2.17821 13.9331 2.46178 13.9331 2.81153C13.9331 3.16129 13.6495 3.44486 13.2998 3.44486ZM5.69991 2.17821C6.04966 2.17821 6.33323 2.46178 6.33323 2.81153C6.33323 3.16129 6.04966 3.44486 5.69991 3.44486C5.35016 3.44486 5.06659 3.16129 5.06659 2.81153C5.06659 2.46178 5.35016 2.17821 5.69991 2.17821ZM1.26665 14.8954V14.8447H3.16662V14.9169C3.21412 17.6696 5.04545 20.0718 7.68728 20.8467C9.07164 21.285 10.5576 21.285 11.9419 20.8467C14.585 20.0729 16.418 17.6705 16.4664 14.9169V14.8447H17.733V14.8954C17.733 18.4185 15.0174 21.5187 11.2732 22.2685C10.3939 22.4446 9.49336 22.4888 8.60116 22.3996C8.30746 22.3711 8.0155 22.3269 7.72654 22.2672C3.98234 21.5187 1.26665 18.4185 1.26665 14.8954ZM8.86652 26.2445C8.29653 26.2445 8.2332 25.3579 8.2332 24.9779V23.634C8.28387 23.6403 8.3358 23.6428 8.3871 23.6479C8.45043 23.6549 8.51376 23.6599 8.5771 23.6656C8.87666 23.6922 9.17875 23.71 9.48338 23.7106H9.51505C9.81904 23.7106 10.1205 23.6922 10.4182 23.6656C10.4815 23.6599 10.5486 23.6549 10.6139 23.6479C10.6639 23.6422 10.7158 23.6403 10.7659 23.634V24.9779C10.7659 25.3579 10.7025 26.2445 10.1325 26.2445H8.86652ZM33.5661 24.9779C31.8173 24.9779 30.3995 23.5601 30.3995 21.8113C30.3995 20.0624 31.8173 18.6446 33.5661 18.6446C35.315 18.6446 36.7327 20.0624 36.7327 21.8113C36.7307 23.5593 35.3141 24.9758 33.5661 24.9779Z" fill="#656565"/>
</svg>
