<svg width="20" height="19" viewBox="0 0 20 19" fill="none" xmlns="http://www.w3.org/2000/svg">
<path opacity="0.8" d="M19.5285 2.84839C19.5128 2.79426 19.4828 2.74534 19.4417 2.70677C19.4006 2.66819 19.3499 2.64139 19.2949 2.62917L17.3677 2.19379L16.9324 0.266643C16.92 0.211762 16.8931 0.161209 16.8545 0.12026C16.816 0.0793107 16.7671 0.0494673 16.7131 0.0338449C16.659 0.0182224 16.6018 0.0173937 16.5473 0.0314453C16.4928 0.0454968 16.4431 0.0739134 16.4034 0.113729L14.1869 2.33053C12.3113 1.19876 10.0864 0.792626 7.93187 1.18879C5.77738 1.58495 3.84241 2.75601 2.49211 4.48096C1.14182 6.20591 0.469592 8.36544 0.602296 10.552C0.735 12.7386 1.66346 14.801 3.21245 16.35C4.76144 17.899 6.82383 18.8274 9.01041 18.9601C11.197 19.0928 13.3565 18.4206 15.0815 17.0703C16.8064 15.72 17.9775 13.7851 18.3736 11.6306C18.7698 9.47609 18.3637 7.25111 17.2319 5.37552L19.4492 3.15817C19.4889 3.11833 19.5172 3.06858 19.5312 3.0141C19.5451 2.95962 19.5442 2.9024 19.5285 2.84839ZM17.8923 10.0098C17.892 11.8456 17.2859 13.6301 16.1681 15.0863C15.0502 16.5425 13.483 17.5891 11.7096 18.0637C9.93624 18.5384 8.05578 18.4145 6.35996 17.7114C4.66414 17.0083 3.24775 15.7652 2.33051 14.175C1.41328 12.5847 1.04646 10.7362 1.28697 8.91626C1.52747 7.09627 2.36186 5.40653 3.6607 4.10914C4.95953 2.81175 6.65021 1.97925 8.47046 1.74077C10.2907 1.50229 12.1388 1.87116 13.728 2.79017L12.7101 3.8081C12.7013 3.81806 12.6932 3.82856 12.6858 3.83955C11.216 3.09126 9.52749 2.89176 7.92376 3.27691C6.32004 3.66206 4.90627 4.60661 3.93659 5.94077C2.96691 7.27493 2.50489 8.91122 2.6336 10.5555C2.7623 12.1998 3.47327 13.7443 4.63873 14.9113C5.80419 16.0784 7.34769 16.7915 8.99181 16.9224C10.6359 17.0533 12.2728 16.5935 13.6083 15.6257C14.9438 14.6578 15.8903 13.2453 16.2776 11.6421C16.6649 10.0389 16.4677 8.35015 15.7215 6.87932C15.733 6.87116 15.744 6.86221 15.7543 6.85255L16.7723 5.83462C17.5074 7.1032 17.8938 8.54367 17.8923 10.0098ZM14.9752 6.82685C15.7475 8.14516 16.0128 9.6997 15.7217 11.1995C15.4305 12.6994 14.6028 14.0417 13.3934 14.9753C12.184 15.9089 10.6758 16.3698 9.15112 16.2718C7.62643 16.1737 6.18974 15.5234 5.10991 14.4425C4.03009 13.3616 3.38115 11.9243 3.28454 10.3995C3.18794 8.87476 3.65029 7.36703 4.58506 6.15853C5.51984 4.95003 6.86297 4.12358 8.36309 3.83387C9.8632 3.54415 11.4175 3.81102 12.735 4.58453L13.0662 6.0515L12.7485 6.36919C11.8011 5.53726 10.5674 5.10637 9.30804 5.16762C8.04872 5.22886 6.86257 5.77745 6.00039 6.69739C5.13821 7.61733 4.66758 8.8365 4.688 10.0971C4.70843 11.3578 5.2183 12.5611 6.10983 13.4526C7.00136 14.3441 8.20465 14.854 9.46529 14.8744C10.7259 14.8949 11.9451 14.4242 12.865 13.562C13.785 12.6999 14.3336 11.5137 14.3948 10.2544C14.4561 8.99508 14.0252 7.7613 13.1932 6.81392L13.5109 6.49623L14.9752 6.82685ZM10.9047 10.0098C10.9059 10.3104 10.8071 10.6029 10.6241 10.8413C10.441 11.0798 10.184 11.2507 9.89331 11.3273C9.60262 11.4038 9.29474 11.3817 9.01797 11.2644C8.7412 11.1471 8.51121 10.9413 8.36408 10.6791C8.21695 10.417 8.16101 10.1134 8.20503 9.81608C8.24906 9.51872 8.39056 9.24439 8.60734 9.03614C8.82412 8.82788 9.1039 8.69749 9.40279 8.66542C9.70167 8.63335 10.0027 8.70142 10.2588 8.85894L9.33015 9.78757C9.30012 9.81658 9.27617 9.85128 9.2597 9.88965C9.24323 9.92802 9.23456 9.96928 9.2342 10.011C9.23385 10.0528 9.24181 10.0942 9.25763 10.1328C9.27345 10.1715 9.29681 10.2066 9.32634 10.2361C9.35587 10.2656 9.39098 10.289 9.42963 10.3048C9.46828 10.3206 9.50969 10.3285 9.55144 10.3281C9.59319 10.3278 9.63446 10.3191 9.67282 10.3026C9.71118 10.2861 9.74587 10.2622 9.77487 10.2321L10.7035 9.30349C10.835 9.51564 10.9047 9.76025 10.9047 10.0098ZM10.7114 8.40631C10.3063 8.11285 9.80543 7.98282 9.3087 8.04213C8.81198 8.10145 8.35584 8.34574 8.03118 8.72634C7.70653 9.10694 7.53721 9.59589 7.55695 10.0958C7.5767 10.5956 7.78406 11.0697 8.13772 11.4235C8.49138 11.7773 8.96537 11.9849 9.46523 12.0048C9.96509 12.0247 10.4541 11.8556 10.8348 11.5311C11.2156 11.2066 11.46 10.7506 11.5196 10.2539C11.5791 9.75718 11.4492 9.25629 11.156 8.85104L12.7476 7.25936C13.4608 8.0879 13.825 9.16064 13.7638 10.2521C13.7025 11.3436 13.2205 12.3689 12.4191 13.1124C11.6177 13.8559 10.5593 14.2598 9.46624 14.2393C8.37323 14.2187 7.33075 13.7752 6.55789 13.002C5.78504 12.2289 5.34198 11.1862 5.32185 10.0932C5.30171 9.00018 5.70606 7.94191 6.44991 7.1408C7.19377 6.33968 8.2192 5.85811 9.31072 5.79729C10.4022 5.73647 11.4748 6.10113 12.3031 6.81464L10.7114 8.40631ZM16.6131 5.10437L15.4329 6.28438L15.2559 6.24449L15.2491 6.24287L13.6741 5.88835L13.2772 4.13046L16.4454 0.961674L16.7989 2.52603C16.812 2.58403 16.8412 2.63712 16.8833 2.67916C16.9253 2.72121 16.9784 2.75048 17.0364 2.76358L18.6008 3.11703L16.6131 5.10437Z" fill="#656565"/>
</svg>
