<svg width="18" height="17" viewBox="0 0 18 17" fill="none" xmlns="http://www.w3.org/2000/svg">
<g opacity="0.8">
<path d="M9 1.44434C9.1165 1.44434 9.21094 1.35514 9.21094 1.24512C9.21094 1.13509 9.1165 1.0459 9 1.0459C8.8835 1.0459 8.78906 1.13509 8.78906 1.24512C8.78906 1.35514 8.8835 1.44434 9 1.44434Z" fill="#656565"/>
<path d="M13.7461 0H4.25391C3.52695 0 2.93555 0.558543 2.93555 1.24512V15.7549C2.93555 16.4415 3.52695 17 4.25391 17H13.7461C14.4731 17 15.0645 16.4415 15.0645 15.7549V1.24512C15.0645 0.558543 14.4731 0 13.7461 0ZM14.5371 15.7549C14.5371 16.1668 14.1822 16.502 13.7461 16.502H4.25391C3.81776 16.502 3.46289 16.1668 3.46289 15.7549V1.24512C3.46289 0.833166 3.81776 0.498047 4.25391 0.498047H13.7461C14.1822 0.498047 14.5371 0.833166 14.5371 1.24512V15.7549Z" fill="#656565"/>
<path d="M10.0547 14.5098H7.94531C7.50916 14.5098 7.1543 14.8449 7.1543 15.2568C7.1543 15.6688 7.50916 16.0039 7.94531 16.0039H10.0547C10.4908 16.0039 10.8457 15.6688 10.8457 15.2568C10.8457 14.8449 10.4908 14.5098 10.0547 14.5098ZM10.0547 15.5059H7.94531C7.79991 15.5059 7.68164 15.3942 7.68164 15.2568C7.68164 15.1195 7.79991 15.0078 7.94531 15.0078H10.0547C10.2001 15.0078 10.3184 15.1195 10.3184 15.2568C10.3184 15.3942 10.2001 15.5059 10.0547 15.5059Z" fill="#656565"/>
<path d="M13.7461 0.996094H10.4915C10.4216 0.996094 10.3546 1.02232 10.3051 1.06904L9.55976 1.77298C9.40939 1.91433 9.21059 1.99219 9 1.99219C8.78931 1.99219 8.59089 1.91446 8.44126 1.77328C8.44003 1.77208 7.97868 1.33702 7.69493 1.06904C7.64547 1.02232 7.57839 0.996094 7.50846 0.996094H4.25391C4.10825 0.996094 3.99023 1.10759 3.99023 1.24512V7.00586C3.99023 7.14339 4.10825 7.25488 4.25391 7.25488C4.39956 7.25488 4.51758 7.14339 4.51758 7.00586V1.49414H7.39927C7.39927 1.49414 8.03911 2.09807 8.06991 2.12437L8.06857 2.12563C8.31779 2.36074 8.64854 2.49023 9 2.49023C9.35097 2.49023 9.68189 2.36088 9.93224 2.12553L10.6007 1.49414H13.4824V13.5137H4.51758V8.00195C4.51758 7.86443 4.39956 7.75293 4.25391 7.75293C4.10825 7.75293 3.99023 7.86443 3.99023 8.00195V13.7627C3.99023 13.9002 4.10825 14.0117 4.25391 14.0117H13.7461C13.8917 14.0117 14.0098 13.9002 14.0098 13.7627V1.24512C14.0098 1.10759 13.8917 0.996094 13.7461 0.996094Z" fill="#656565"/>
</g>
</svg>
