<svg width="18" height="18" viewBox="0 0 18 18" fill="none" xmlns="http://www.w3.org/2000/svg">
<g opacity="0.8">
<path d="M8.8718 8.67067C10.063 8.67067 11.0943 8.24344 11.9373 7.40051C12.7799 6.55773 13.2073 5.52652 13.2073 4.3352C13.2073 3.14428 12.78 2.11294 11.9371 1.26988C11.0942 0.42723 10.0629 0 8.8718 0C7.68047 0 6.64926 0.42723 5.80647 1.27002C4.96368 2.1128 4.53632 3.14414 4.53632 4.3352C4.53632 5.52652 4.96368 6.55786 5.80647 7.40065C6.64954 8.2433 7.68088 8.67067 8.8718 8.67067ZM6.55244 2.01585C7.19913 1.36917 7.95773 1.05482 8.8718 1.05482C9.78572 1.05482 10.5445 1.36917 11.1913 2.01585C11.838 2.66267 12.1525 3.42141 12.1525 4.3352C12.1525 5.24926 11.838 6.00786 11.1913 6.65468C10.5445 7.3015 9.78572 7.61585 8.8718 7.61585C7.95801 7.61585 7.1994 7.30136 6.55244 6.65468C5.90562 6.008 5.59114 5.24926 5.59114 4.3352C5.59114 3.42141 5.90562 2.66267 6.55244 2.01585Z" fill="#656565"/>
<path d="M16.4577 13.8411C16.4333 13.4904 16.3842 13.1078 16.3118 12.7037C16.2388 12.2967 16.1447 11.9119 16.0321 11.5602C15.9156 11.1967 15.7576 10.8377 15.5619 10.4937C15.359 10.1367 15.1206 9.82574 14.8531 9.5699C14.5734 9.30224 14.2309 9.08705 13.8348 8.93008C13.4401 8.77394 13.0027 8.69484 12.5349 8.69484C12.3511 8.69484 12.1734 8.77023 11.8302 8.99367C11.619 9.13141 11.3719 9.29071 11.0962 9.4669C10.8604 9.61714 10.541 9.7579 10.1464 9.88534C9.76149 10.0099 9.37065 10.0731 8.98476 10.0731C8.59914 10.0731 8.2083 10.0099 7.82309 9.88534C7.42896 9.75804 7.10939 9.61728 6.87401 9.46704C6.60086 9.29249 6.35367 9.13319 6.1393 8.99353C5.79639 8.7701 5.61868 8.6947 5.43494 8.6947C4.96692 8.6947 4.52966 8.77394 4.13512 8.93022C3.73933 9.08691 3.3967 9.30211 3.11668 9.57004C2.84917 9.82602 2.61076 10.1368 2.40807 10.4937C2.21265 10.8377 2.05444 11.1966 1.93799 11.5603C1.82552 11.912 1.73145 12.2967 1.65839 12.7037C1.58588 13.1072 1.53685 13.49 1.51254 13.8415C1.48865 14.1852 1.47656 14.543 1.47656 14.9044C1.47656 15.844 1.77525 16.6047 2.36426 17.1657C2.94598 17.7193 3.71558 18 4.65175 18H13.3189C14.2548 18 15.0244 17.7193 15.6062 17.1657C16.1954 16.6051 16.494 15.8442 16.494 14.9043C16.4939 14.5416 16.4817 14.1839 16.4577 13.8411ZM14.8789 16.4015C14.4945 16.7673 13.9842 16.9451 13.3187 16.9451H4.65175C3.98611 16.9451 3.4758 16.7673 3.09155 16.4016C2.71458 16.0428 2.53139 15.5529 2.53139 14.9044C2.53139 14.5672 2.54251 14.2341 2.56476 13.9144C2.58646 13.6008 2.63081 13.2562 2.69659 12.8901C2.76155 12.5285 2.84422 12.1892 2.94255 11.882C3.0369 11.5874 3.16557 11.2957 3.32515 11.0147C3.47745 10.7469 3.65268 10.5172 3.84604 10.3321C4.0269 10.1589 4.25487 10.0172 4.52348 9.91089C4.77191 9.81256 5.0511 9.75873 5.35419 9.75062C5.39113 9.77026 5.45691 9.80775 5.56348 9.87724C5.78032 10.0186 6.03026 10.1798 6.30656 10.3562C6.61803 10.5548 7.0193 10.7342 7.49872 10.8889C7.98885 11.0474 8.48872 11.1279 8.98489 11.1279C9.48106 11.1279 9.98108 11.0474 10.4709 10.8891C10.9508 10.734 11.3519 10.5548 11.6638 10.356C11.9465 10.1752 12.1895 10.0187 12.4063 9.87724C12.5129 9.80789 12.5787 9.77026 12.6156 9.75062C12.9188 9.75873 13.198 9.81256 13.4466 9.91089C13.7151 10.0172 13.943 10.159 14.1239 10.3321C14.3172 10.5171 14.4925 10.7468 14.6448 11.0149C14.8045 11.2957 14.9333 11.5875 15.0275 11.8818C15.126 12.1894 15.2088 12.5286 15.2736 12.89C15.3392 13.2568 15.3837 13.6015 15.4054 13.9146V13.9148C15.4278 14.2333 15.4391 14.5662 15.4392 14.9044C15.4391 15.553 15.2559 16.0428 14.8789 16.4015Z" fill="#656565"/>
</g>
</svg>
