<svg width="36" height="36" viewBox="0 0 36 36" fill="none" xmlns="http://www.w3.org/2000/svg">
<path d="M25.8 15C20.1668 15 15.6 19.5668 15.6 25.2C15.6 30.8332 20.1668 35.4 25.8 35.4C31.4332 35.4 36 30.8332 36 25.2C35.9939 19.5694 31.4306 15.0062 25.8 15ZM23.4 33.8651V29.4H22.2V33.4433C21.7846 33.2593 21.3832 33.0445 21 32.8002V29.412C21.0018 28.6084 21.5338 27.9023 22.3055 27.6785L23.6101 27.3067L25.4399 28.6799C25.6532 28.8401 25.9468 28.8401 26.1601 28.6799L27.9894 27.3067L29.2945 27.6791C30.0662 27.9023 30.5982 28.6084 30.6 29.412V32.8002C30.2168 33.0445 29.8157 33.2596 29.4 33.4433V29.4H28.2V33.8651C26.6312 34.3116 24.9689 34.3116 23.4 33.8651ZM27.8039 20.6651L27.537 20.1299C27.4603 19.9758 27.3208 19.8621 27.1544 19.8179C26.9877 19.7733 26.8105 19.8029 26.6669 19.8984L25.7742 20.4935C25.2817 20.8225 24.7025 20.9979 24.1105 20.9977H23.4C23.3953 19.672 24.4661 18.5938 25.7915 18.5892C27.1172 18.5845 28.1953 19.6553 28.2 20.9807C28.0283 20.9396 27.8836 20.8251 27.8039 20.6675V20.6651ZM24.1105 22.2C24.9396 22.2006 25.7502 21.9551 26.4396 21.4945L26.7683 21.2754C26.9572 21.6088 27.249 21.8719 27.6 22.0254V22.8C27.6 23.794 26.794 24.6 25.8 24.6C24.806 24.6 24 23.794 24 22.8V22.2H24.1105ZM25.8 25.8C26.0016 25.8003 26.2025 25.7801 26.4 25.7399V26.4C26.4021 26.5708 26.4773 26.7325 26.6071 26.8441L25.8 27.45L24.9929 26.8441C25.1227 26.7325 25.198 26.5708 25.2 26.4V25.7399C25.3975 25.7801 25.5984 25.8003 25.8 25.8ZM31.8 31.8894V29.412C31.7971 28.0731 30.9108 26.8969 29.625 26.5248L27.6 25.9465V25.1845C28.3526 24.6226 28.7974 23.7393 28.8 22.8V22.2C29.1314 22.2 29.4 21.9313 29.4 21.6V21C29.4 19.0119 27.7881 17.4 25.8 17.4C23.8119 17.4 22.2 19.0119 22.2 21V21.6C22.2 21.9313 22.4687 22.2 22.8 22.2V22.8C22.8026 23.7393 23.2474 24.6226 24 25.1845V25.9465L21.9756 26.5248C20.6892 26.8966 19.8029 28.0731 19.8 29.412V31.8894C17.0186 29.4018 16.0608 25.4558 17.3924 21.9697C18.7239 18.484 22.0685 16.1813 25.8 16.1813C29.5315 16.1813 32.8761 18.484 34.2076 21.9697C35.5392 25.4558 34.5814 29.4018 31.8 31.8894Z" fill="#E02828"/>
<path d="M1.2 26.4V8.99998H28.8V14.4H30V5.99998C29.9979 4.34382 28.6562 3.00203 27 2.99998H22.8V2.39998C22.8 1.40593 21.994 0.599976 21 0.599976C20.006 0.599976 19.2 1.40593 19.2 2.39998V2.99998H10.8V2.39998C10.8 1.40593 9.99404 0.599976 9 0.599976C8.00596 0.599976 7.2 1.40593 7.2 2.39998V2.99998H3C1.34385 3.00203 0.00205079 4.34382 0 5.99998V26.4C0.00205079 28.0561 1.34385 29.3979 3 29.4H15V28.2H3C2.00596 28.2 1.2 27.394 1.2 26.4ZM20.4 2.39998C20.4 2.06863 20.6687 1.79998 21 1.79998C21.3313 1.79998 21.6 2.06863 21.6 2.39998V4.79998C21.6 5.13132 21.3313 5.39998 21 5.39998C20.6687 5.39998 20.4 5.13132 20.4 4.79998V2.39998ZM8.4 2.39998C8.4 2.06863 8.66865 1.79998 9 1.79998C9.33135 1.79998 9.6 2.06863 9.6 2.39998V4.79998C9.6 5.13132 9.33135 5.39998 9 5.39998C8.66865 5.39998 8.4 5.13132 8.4 4.79998V2.39998ZM3 4.19998H7.2V4.79998C7.2 5.79402 8.00596 6.59998 9 6.59998C9.99404 6.59998 10.8 5.79402 10.8 4.79998V4.19998H19.2V4.79998C19.2 5.79402 20.006 6.59998 21 6.59998C21.994 6.59998 22.8 5.79402 22.8 4.79998V4.19998H27C27.994 4.19998 28.8 5.00593 28.8 5.99998V7.79998H1.2V5.99998C1.2 5.00593 2.00596 4.19998 3 4.19998Z" fill="#E02828"/>
<path d="M8.40001 13.8C8.40001 13.1373 7.8627 12.6 7.20001 12.6H4.80001C4.13731 12.6 3.60001 13.1373 3.60001 13.8V16.2C3.60001 16.8627 4.13731 17.4 4.80001 17.4H7.20001C7.8627 17.4 8.40001 16.8627 8.40001 16.2V13.8ZM4.80001 16.2V13.8H7.20001V16.2H4.80001Z" fill="#E02828"/>
<path d="M14.4 13.8C14.4 13.1373 13.8627 12.6 13.2 12.6H10.8C10.1373 12.6 9.60001 13.1373 9.60001 13.8V16.2C9.60001 16.8627 10.1373 17.4 10.8 17.4H13.2C13.8627 17.4 14.4 16.8627 14.4 16.2V13.8ZM10.8 16.2V13.8H13.2V16.2H10.8Z" fill="#E02828"/>
<path d="M20.4 15V13.8C20.4 13.1373 19.8627 12.6 19.2 12.6H16.8C16.1373 12.6 15.6 13.1373 15.6 13.8V16.2C15.6 16.8627 16.1373 17.4 16.8 17.4H18V16.2H16.8V13.8H19.2V15H20.4Z" fill="#E02828"/>
<path d="M22.8 12.6C22.1373 12.6 21.6 13.1373 21.6 13.8V14.4H22.8V13.8H26.4C26.4 13.1373 25.8627 12.6 25.2 12.6H22.8Z" fill="#E02828"/>
<path d="M7.20001 19.8H4.80001C4.13731 19.8 3.60001 20.3374 3.60001 21V23.4C3.60001 24.0627 4.13731 24.6 4.80001 24.6H7.20001C7.8627 24.6 8.40001 24.0627 8.40001 23.4V21C8.40001 20.3374 7.8627 19.8 7.20001 19.8ZM4.80001 23.4V21H7.20001V23.4H4.80001Z" fill="#E02828"/>
<path d="M13.2 19.8H10.8C10.1373 19.8 9.60001 20.3374 9.60001 21V23.4C9.60001 24.0627 10.1373 24.6 10.8 24.6H13.2C13.8627 24.6 14.4 24.0627 14.4 23.4V21C14.4 20.3374 13.8627 19.8 13.2 19.8ZM10.8 23.4V21H13.2V23.4H10.8Z" fill="#E02828"/>
</svg>
