<svg width="15" height="15" viewBox="0 0 15 15" fill="none" xmlns="http://www.w3.org/2000/svg">
<g clip-path="url(#clip0)">
<path d="M14.2308 2.5H0.769248C0.346143 2.5 0 2.84614 0 3.26922V11.7308C0 12.1538 0.346143 12.5 0.769248 12.5H14.2308C14.6538 12.5 15 12.1539 15 11.7308V3.26922C15 2.84614 14.6539 2.5 14.2308 2.5ZM13.9421 3.07688L7.9425 7.57694C7.83463 7.65903 7.66904 7.71039 7.49997 7.70963C7.33093 7.71039 7.16537 7.65903 7.05747 7.57694L1.05788 3.07688H13.9421ZM10.7373 7.87387L14.0065 11.9124C14.0098 11.9164 14.0138 11.9195 14.0173 11.9231H0.982676C0.986133 11.9193 0.990176 11.9164 0.993457 11.9124L4.2627 7.87387C4.36286 7.75003 4.34388 7.56848 4.2198 7.46808C4.09597 7.36791 3.91441 7.38689 3.81422 7.51076L0.576914 11.5098V3.43747L6.7115 8.03843C6.9421 8.21017 7.22265 8.28575 7.49994 8.28651C7.77686 8.28593 8.05764 8.21034 8.28838 8.03843L14.423 3.43747V11.5098L11.1858 7.51076C11.0856 7.38692 10.9038 7.36788 10.7802 7.46808C10.6561 7.56824 10.6371 7.75003 10.7373 7.87387Z" fill="#656565"/>
</g>
<defs>
<clipPath id="clip0">
<rect width="15" height="15" fill="white"/>
</clipPath>
</defs>
</svg>
