<svg width="48" height="48" viewBox="0 0 48 48" fill="none" xmlns="http://www.w3.org/2000/svg">
<path d="M40.7551 10.1184C40.7223 10.0054 40.6598 9.90331 40.574 9.82281C40.4883 9.74232 40.3824 9.68639 40.2676 9.66089L36.2457 8.75226L35.3371 4.73039C35.3113 4.61585 35.2552 4.51035 35.1747 4.42489C35.0941 4.33943 34.9922 4.27715 34.8794 4.24455C34.7666 4.21194 34.6471 4.21021 34.5334 4.23954C34.4198 4.26886 34.316 4.32817 34.2331 4.41126L29.6074 9.03764C25.6932 6.67566 21.0497 5.82809 16.5534 6.65487C12.0571 7.48164 8.0189 9.92558 5.2009 13.5255C2.38289 17.1254 0.979981 21.6322 1.25693 26.1955C1.53388 30.7588 3.47152 35.063 6.7042 38.2956C9.93688 41.5283 14.241 43.466 18.8043 43.7429C23.3676 44.0199 27.8745 42.6169 31.4744 39.7989C35.0742 36.9809 37.5182 32.9427 38.345 28.4464C39.1717 23.9501 38.3242 19.3067 35.9622 15.3924L40.5897 10.7649C40.6725 10.6817 40.7315 10.5779 40.7606 10.4642C40.7897 10.3505 40.7878 10.2311 40.7551 10.1184ZM37.3403 25.064C37.3398 28.8953 36.075 32.6193 33.742 35.6583C31.4091 38.6973 28.1384 40.8816 24.4374 41.8721C20.7365 42.8627 16.812 42.6043 13.2729 41.1369C9.73383 39.6695 6.77788 37.0752 4.86365 33.7564C2.94941 30.4377 2.18387 26.58 2.6858 22.7818C3.18773 18.9835 4.92906 15.4571 7.63968 12.7495C10.3503 10.0419 13.8787 8.30451 17.6774 7.80682C21.4762 7.30912 25.3331 8.07895 28.6497 9.99689L26.5253 12.1213C26.5071 12.142 26.4902 12.164 26.4747 12.1869C23.4073 10.6252 19.8834 10.2089 16.5365 11.0127C13.1896 11.8165 10.2391 13.7877 8.21545 16.572C6.19177 19.3564 5.22757 22.7712 5.49616 26.2028C5.76476 29.6344 7.24853 32.8576 9.68079 35.2932C12.113 37.7288 15.3343 39.2169 18.7655 39.4902C22.1967 39.7635 25.6129 38.8039 28.3999 36.784C31.187 34.7641 33.1623 31.8163 33.9706 28.4705C34.779 25.1247 34.3674 21.6003 32.8099 18.5308C32.8341 18.5137 32.857 18.4951 32.8786 18.4749L35.0029 16.3505C36.5371 18.998 37.3435 22.0042 37.3403 25.064ZM31.2526 18.4213C32.8642 21.1725 33.418 24.4168 32.8104 27.5469C32.2028 30.6769 30.4753 33.4783 27.9514 35.4267C25.4274 37.3752 22.2799 38.337 19.0979 38.1324C15.916 37.9277 12.9177 36.5705 10.6641 34.3148C8.41058 32.0591 7.05627 29.0594 6.85466 25.8773C6.65305 22.6952 7.61796 19.5486 9.56879 17.0265C11.5196 14.5044 14.3227 12.7796 17.4534 12.175C20.584 11.5704 23.8278 12.1274 26.5774 13.7416L27.2686 16.8031L26.6056 17.4661C24.6284 15.7299 22.0536 14.8307 19.4254 14.9585C16.7973 15.0863 14.3218 16.2312 12.5225 18.1511C10.7232 20.0709 9.741 22.6153 9.78362 25.2462C9.82624 27.8771 10.8903 30.3883 12.7509 32.2489C14.6115 34.1095 17.1227 35.1736 19.7536 35.2162C22.3845 35.2588 24.9289 34.2766 26.8488 32.4773C28.7686 30.678 29.9135 28.2026 30.0413 25.5744C30.1691 22.9463 29.2699 20.3714 27.5337 18.3943L28.1967 17.7313L31.2526 18.4213ZM22.7577 25.064C22.76 25.6914 22.554 26.3017 22.172 26.7993C21.7899 27.2969 21.2535 27.6536 20.6469 27.8134C20.0402 27.9732 19.3977 27.9271 18.8201 27.6823C18.2425 27.4375 17.7625 27.0079 17.4554 26.4608C17.1484 25.9137 17.0316 25.2802 17.1235 24.6596C17.2154 24.0391 17.5107 23.4665 17.9631 23.0319C18.4155 22.5973 18.9994 22.3252 19.6232 22.2583C20.2469 22.1913 20.8753 22.3334 21.4096 22.6621L19.4716 24.6001C19.4089 24.6607 19.3589 24.7331 19.3245 24.8132C19.2902 24.8933 19.2721 24.9794 19.2713 25.0665C19.2706 25.1536 19.2872 25.2401 19.3202 25.3207C19.3533 25.4013 19.402 25.4746 19.4636 25.5362C19.5253 25.5978 19.5985 25.6465 19.6792 25.6795C19.7599 25.7125 19.8463 25.7291 19.9334 25.7283C20.0205 25.7275 20.1067 25.7094 20.1867 25.675C20.2668 25.6406 20.3392 25.5906 20.3997 25.5279L22.3377 23.5899C22.6121 24.0326 22.7575 24.5431 22.7577 25.064ZM22.3542 21.7175C21.5087 21.1051 20.4635 20.8337 19.4268 20.9575C18.3902 21.0813 17.4382 21.5911 16.7607 22.3854C16.0832 23.1797 15.7298 24.2001 15.771 25.2433C15.8122 26.2865 16.245 27.2759 16.983 28.0143C17.7211 28.7526 18.7103 29.1858 19.7535 29.2274C20.7967 29.269 21.8172 28.9161 22.6118 28.2389C23.4064 27.5617 23.9166 26.6099 24.0408 25.5733C24.165 24.5367 23.894 23.4914 23.2819 22.6456L26.6037 19.3239C28.0921 21.053 28.8522 23.2918 28.7243 25.5697C28.5965 27.8476 27.5906 29.9872 25.9181 31.5389C24.2456 33.0906 22.0367 33.9336 19.7556 33.8906C17.4745 33.8477 15.2989 32.9222 13.686 31.3086C12.0731 29.695 11.1484 27.5191 11.1064 25.238C11.0644 22.9569 11.9083 20.7483 13.4607 19.0764C15.013 17.4046 17.1531 16.3995 19.431 16.2726C21.709 16.1457 23.9474 16.9067 25.6759 18.3958L22.3542 21.7175ZM34.6707 14.8265L32.2077 17.2891L31.8383 17.2059L31.8241 17.2025L28.5372 16.4626L27.7088 12.794L34.3208 6.18089L35.0584 9.44564C35.0858 9.56667 35.1469 9.67747 35.2346 9.76521C35.3224 9.85295 35.4332 9.91404 35.5542 9.94139L38.8189 10.679L34.6707 14.8265Z" fill="#656565"/>
</svg>
