<svg width="15" height="15" viewBox="0 0 15 15" fill="none" xmlns="http://www.w3.org/2000/svg">
<path d="M7.5 1.27441C7.59708 1.27441 7.67578 1.19571 7.67578 1.09863C7.67578 1.00155 7.59708 0.922852 7.5 0.922852C7.40292 0.922852 7.32422 1.00155 7.32422 1.09863C7.32422 1.19571 7.40292 1.27441 7.5 1.27441Z" fill="#656565"/>
<path d="M11.4551 0H3.54492C2.93912 0 2.44629 0.492832 2.44629 1.09863V13.9014C2.44629 14.5072 2.93912 15 3.54492 15H11.4551C12.0609 15 12.5537 14.5072 12.5537 13.9014V1.09863C12.5537 0.492832 12.0609 0 11.4551 0ZM12.1143 13.9014C12.1143 14.2649 11.8185 14.5605 11.4551 14.5605H3.54492C3.18146 14.5605 2.88574 14.2649 2.88574 13.9014V1.09863C2.88574 0.735147 3.18146 0.439453 3.54492 0.439453H11.4551C11.8185 0.439453 12.1143 0.735147 12.1143 1.09863V13.9014Z" fill="#656565"/>
<path d="M8.37891 12.8027H6.62109C6.25764 12.8027 5.96191 13.0984 5.96191 13.4619C5.96191 13.8254 6.25764 14.1211 6.62109 14.1211H8.37891C8.74236 14.1211 9.03809 13.8254 9.03809 13.4619C9.03809 13.0984 8.74236 12.8027 8.37891 12.8027ZM8.37891 13.6816H6.62109C6.49992 13.6816 6.40137 13.5831 6.40137 13.4619C6.40137 13.3407 6.49992 13.2422 6.62109 13.2422H8.37891C8.50008 13.2422 8.59863 13.3407 8.59863 13.4619C8.59863 13.5831 8.50008 13.6816 8.37891 13.6816Z" fill="#656565"/>
<path d="M11.4551 0.878906H8.74295C8.68468 0.878906 8.62881 0.902051 8.58756 0.943271L7.96646 1.56439C7.84116 1.68911 7.67549 1.75781 7.5 1.75781C7.32442 1.75781 7.15907 1.68923 7.03438 1.56466C7.03336 1.5636 6.6489 1.17973 6.41244 0.943271C6.37122 0.902051 6.31532 0.878906 6.25705 0.878906H3.54492C3.42354 0.878906 3.3252 0.977285 3.3252 1.09863V6.18164C3.3252 6.30299 3.42354 6.40137 3.54492 6.40137C3.6663 6.40137 3.76465 6.30299 3.76465 6.18164V1.31836H6.16605C6.16605 1.31836 6.69926 1.85124 6.72492 1.87444L6.72381 1.87556C6.93149 2.08301 7.20712 2.19727 7.5 2.19727C7.79247 2.19727 8.06824 2.08312 8.27687 1.87547L8.83395 1.31836H11.2354V11.9238H3.76465V7.06055C3.76465 6.9392 3.6663 6.84082 3.54492 6.84082C3.42354 6.84082 3.3252 6.9392 3.3252 7.06055V12.1436C3.3252 12.2649 3.42354 12.3633 3.54492 12.3633H11.4551C11.5765 12.3633 11.6748 12.2649 11.6748 12.1436V1.09863C11.6748 0.977285 11.5765 0.878906 11.4551 0.878906Z" fill="#656565"/>
</svg>
