<svg width="42" height="56" viewBox="0 0 42 56" fill="none" xmlns="http://www.w3.org/2000/svg">
<path d="M1.27366 12.0583C-0.449781 15.0312 -0.422775 18.6392 1.34613 21.7094C3.22216 24.9839 6.69965 27.012 10.4738 27.0327C10.4882 27.0327 10.5021 27.0318 10.5165 27.0318L13.7451 50.9962C14.1372 53.853 16.5713 55.986 19.4547 56H31.215C34.0983 55.986 36.5325 53.8526 36.9245 50.9958L41.9198 13.9298C41.9643 13.6084 41.8635 13.2839 41.6452 13.0435C41.4237 12.8 41.1069 12.6654 40.7779 12.6749H19.9588C19.8796 12.4805 19.7841 12.2937 19.6725 12.1159C19.6545 12.0853 19.6352 12.0412 19.6149 12.0123L11.4118 0.502315C11.1975 0.194444 10.8492 0.00765174 10.4747 0H10.4738C10.1002 0.00495114 9.7518 0.188593 9.53665 0.493763L1.33353 11.9588C1.31237 11.9894 1.29212 12.0263 1.27366 12.0583ZM34.6407 50.6879C34.4057 52.4032 32.9456 53.6847 31.215 53.6955H19.4547C17.7236 53.6847 16.2639 52.4032 16.0289 50.6879L13.3711 30.963C14.5062 31.1102 15.2233 31.45 16.0222 31.8322C17.1731 32.3827 18.4779 33.0051 20.9589 33.0051C23.4403 33.0051 24.7452 32.3804 25.8965 31.8299C26.961 31.3204 27.8806 30.8802 29.839 30.8802C31.7978 30.8802 32.717 31.32 33.7819 31.829C34.6402 32.24 35.5841 32.6968 37.0375 32.8998L34.6407 50.6879ZM39.4599 14.9794L37.3454 30.6385C36.2579 30.4855 35.5553 30.1366 34.7757 29.764C33.6248 29.2135 32.32 28.5824 29.8385 28.5824C27.3571 28.5824 26.0527 29.2027 24.9018 29.7536C23.8369 30.2627 22.9173 30.7006 20.9589 30.7006C19.0001 30.7006 18.0814 30.26 17.0165 29.7514C16.0267 29.2778 14.9221 28.7503 13.0547 28.6117L12.8058 26.7649C15.6756 26.1037 18.1408 24.2785 19.6109 21.7269C20.8369 19.593 21.2191 17.1687 20.7573 14.9794H39.4599ZM3.24016 13.2605L10.472 3.15792L17.7065 13.292C19.0014 15.5484 18.9677 18.1905 17.6124 20.5494C16.1644 23.1285 13.4377 24.726 10.4801 24.7278C7.52244 24.73 4.79347 23.1362 3.34234 20.5589C1.97942 18.1923 1.94297 15.5353 3.24016 13.2605Z" fill="#9B9A9A"/>
</svg>
